<svg xmlns="http://www.w3.org/2000/svg" xmlns:xlink="http://www.w3.org/1999/xlink" width="200" zoomAndPan="magnify" viewBox="0 0 150 225" height="300" preserveAspectRatio="xMidYMid meet" version="1.0"><defs><filter x="0%" y="0%" width="100%" height="100%" id="id1"><feColorMatrix values="0 0 0 0 1 0 0 0 0 1 0 0 0 0 1 0 0 0 1 0" color-interpolation-filters="sRGB"/></filter><g/><clipPath id="id2"><path d="M 38 110 L 112 110 L 112 185.242188 L 38 185.242188 Z M 38 110 " clip-rule="nonzero"/></clipPath><clipPath id="id3"><path d="M 38 111 L 112 111 L 112 185.242188 L 38 185.242188 Z M 38 111 " clip-rule="nonzero"/></clipPath><clipPath id="id4"><path d="M 31.875 43.820312 L 117.9375 43.820312 L 117.9375 118 L 31.875 118 Z M 31.875 43.820312 " clip-rule="nonzero"/></clipPath><clipPath id="id5"><path d="M 32 43.820312 L 117.9375 43.820312 L 117.9375 117 L 32 117 Z M 32 43.820312 " clip-rule="nonzero"/></clipPath><clipPath id="id6"><path d="M 39.652344 101.664062 L 110 101.664062 L 110 127 L 39.652344 127 Z M 39.652344 101.664062 " clip-rule="nonzero"/></clipPath><clipPath id="id7"><path d="M 39.652344 101.664062 L 110.363281 101.664062 L 110.363281 127.425781 L 39.652344 127.425781 Z M 39.652344 101.664062 " clip-rule="nonzero"/></clipPath><mask id="id8"><g filter="url(#id1)"><rect x="-15" width="180" fill="#000000" y="-22.5" height="270" fill-opacity="0.8471"/></g></mask><clipPath id="id9"><path d="M 0.160156 1 L 27.519531 1 L 27.519531 23 L 0.160156 23 Z M 0.160156 1 " clip-rule="nonzero"/></clipPath><clipPath id="id10"><path d="M 0.160156 0.71875 L 27.519531 0.71875 L 27.519531 23.28125 L 0.160156 23.28125 Z M 0.160156 0.71875 " clip-rule="nonzero"/></clipPath><clipPath id="id11"><rect x="0" width="28" y="0" height="24"/></clipPath><mask id="id12"><g filter="url(#id1)"><rect x="-15" width="180" fill="#000000" y="-22.5" height="270" fill-opacity="0.8471"/></g></mask><clipPath id="id13"><path d="M 0.960938 0.71875 L 28.320312 0.71875 L 28.320312 23.28125 L 0.960938 23.28125 Z M 0.960938 0.71875 " clip-rule="nonzero"/></clipPath><clipPath id="id14"><rect x="0" width="29" y="0" height="24"/></clipPath><clipPath id="id15"><path d="M 22 127.609375 L 23 127.609375 L 23 129 L 22 129 Z M 22 127.609375 " clip-rule="nonzero"/></clipPath><clipPath id="id16"><path d="M 14.730469 128 L 86 128 L 86 219.109375 L 14.730469 219.109375 Z M 14.730469 128 " clip-rule="nonzero"/></clipPath><clipPath id="id17"><path d="M 127 127.609375 L 129 127.609375 L 129 129 L 127 129 Z M 127 127.609375 " clip-rule="nonzero"/></clipPath><clipPath id="id18"><path d="M 64 128 L 135.480469 128 L 135.480469 219.109375 L 64 219.109375 Z M 64 128 " clip-rule="nonzero"/></clipPath></defs><g clip-path="url(#id2)"><path fill="#000000" d="M 40.003906 110.847656 L 40.097656 110.847656 L 40.097656 110.855469 C 40.082031 112.996094 40.0625 115.132812 40.246094 117.25 C 40.363281 118.648438 40.570312 120.035156 40.742188 121.191406 C 40.832031 121.785156 40.910156 122.320312 40.964844 122.761719 C 40.992188 122.980469 41.011719 123.175781 41.03125 123.355469 C 41.046875 123.507812 41.0625 123.644531 41.078125 123.777344 C 41.152344 124.410156 41.265625 124.839844 41.722656 125.46875 C 42.003906 125.855469 42.414062 126.316406 42.84375 126.796875 C 43.320312 127.332031 43.820312 127.890625 44.199219 128.410156 C 44.296875 128.542969 44.386719 128.675781 44.464844 128.804688 C 44.945312 129.585938 45.03125 130.21875 45.09375 130.707031 C 45.117188 130.890625 45.140625 131.050781 45.175781 131.191406 C 45.316406 131.699219 45.679688 131.953125 46.058594 132.214844 L 46.050781 132.210938 L 46.058594 132.214844 C 47.109375 132.601562 48.15625 132.988281 48.898438 133.246094 C 48.945312 133.261719 48.992188 133.277344 49.035156 133.292969 C 49.078125 133.308594 49.117188 133.320312 49.160156 133.335938 C 49.75 133.542969 50.140625 133.695312 50.511719 134.105469 C 50.929688 134.570312 51.320312 135.363281 51.699219 136.8125 C 52.078125 138.265625 52.441406 140.378906 52.808594 142.492188 L 52.746094 142.457031 C 54.304688 141.867188 55.867188 141.277344 57.105469 140.789062 C 58.34375 140.304688 59.261719 139.921875 60.175781 139.535156 L 60.167969 139.539062 C 62.816406 137.855469 65.464844 136.167969 66.984375 135.25 C 68.503906 134.335938 68.894531 134.183594 69.394531 134.023438 C 69.890625 133.867188 70.492188 133.699219 71.023438 133.632812 C 71.128906 133.621094 71.230469 133.613281 71.332031 133.609375 C 71.75 133.59375 72.148438 133.664062 72.660156 133.859375 C 73.292969 134.101562 74.101562 134.542969 74.902344 134.980469 L 74.859375 134.980469 L 74.878906 134.96875 C 75.628906 134.601562 76.375 134.234375 76.960938 133.964844 C 77.394531 133.765625 77.746094 133.621094 78.222656 133.605469 C 78.394531 133.597656 78.578125 133.609375 78.785156 133.636719 C 79.578125 133.75 80.730469 134.140625 81.65625 134.585938 C 82.585938 135.035156 83.285156 135.542969 83.984375 136.050781 L 83.980469 136.046875 C 84.425781 136.296875 84.875 136.550781 85.757812 137.105469 C 86.636719 137.660156 87.957031 138.515625 89.273438 139.371094 L 89.265625 139.367188 L 96.925781 142.570312 L 96.863281 142.605469 C 97.273438 140.546875 97.683594 138.488281 97.984375 137.167969 C 98.289062 135.851562 98.480469 135.261719 98.75 134.773438 C 99.019531 134.289062 99.371094 133.902344 99.890625 133.617188 C 100.410156 133.328125 101.097656 133.140625 101.691406 132.980469 L 101.730469 132.972656 L 101.769531 132.960938 C 102.332031 132.808594 102.804688 132.679688 103.125 132.539062 C 103.332031 132.445312 103.480469 132.347656 103.621094 132.253906 C 103.703125 132.199219 103.785156 132.144531 103.878906 132.09375 C 103.902344 132.078125 103.929688 132.0625 103.957031 132.050781 C 103.984375 132.035156 104.011719 132.019531 104.039062 132.003906 C 104.238281 131.890625 104.453125 131.738281 104.566406 131.300781 C 104.605469 131.148438 104.632812 130.960938 104.664062 130.742188 C 104.703125 130.46875 104.75 130.148438 104.839844 129.8125 C 104.933594 129.449219 105.070312 129.066406 105.300781 128.6875 C 105.640625 128.128906 106.171875 127.585938 106.691406 127.054688 C 107.105469 126.625 107.515625 126.207031 107.820312 125.789062 C 108.503906 124.847656 108.664062 123.914062 108.824219 122.96875 L 108.824219 122.972656 L 109.511719 116.945312 L 109.511719 116.949219 L 109.625 113.191406 C 109.625 113.183594 109.628906 113.175781 109.632812 113.167969 L 110.105469 112.464844 C 110.117188 112.449219 110.136719 112.441406 110.15625 112.445312 C 110.175781 112.449219 110.1875 112.464844 110.191406 112.484375 L 110.808594 116.980469 C 110.941406 117.972656 111.074219 118.964844 111.132812 120.136719 C 111.195312 121.308594 111.183594 122.660156 111.175781 124.011719 C 111.183594 125.527344 111.195312 127.046875 111.0625 128.378906 C 110.929688 129.714844 110.652344 130.863281 110.378906 132.011719 L 110.378906 132.007812 C 110.175781 132.988281 109.976562 133.964844 109.890625 135.335938 C 109.835938 136.257812 109.835938 137.359375 109.832031 138.316406 C 109.832031 138.78125 109.832031 139.214844 109.824219 139.578125 C 109.804688 140.683594 109.726562 141.132812 109.648438 141.578125 L 109.648438 141.574219 C 109.570312 142.261719 109.488281 142.953125 109.292969 143.484375 C 109.230469 143.648438 109.160156 143.796875 109.089844 143.945312 C 109.019531 144.09375 108.949219 144.238281 108.886719 144.40625 C 108.8125 144.609375 108.753906 144.839844 108.726562 145.128906 C 108.664062 145.882812 108.84375 147.03125 109.027344 148.191406 L 109.027344 148.1875 L 109.035156 148.226562 C 109.300781 149.523438 109.566406 150.824219 109.839844 152.480469 C 110.117188 154.148438 110.402344 156.191406 110.019531 157.882812 C 109.640625 159.574219 108.597656 160.90625 107.5625 162.230469 C 107.558594 162.230469 107.558594 162.230469 107.558594 162.230469 C 106.96875 162.910156 106.378906 163.582031 105.964844 164.199219 C 105.550781 164.816406 105.3125 165.375 105.265625 165.957031 C 105.234375 166.367188 105.292969 166.792969 105.355469 167.246094 C 105.382812 167.4375 105.410156 167.636719 105.433594 167.835938 C 105.5 168.507812 105.496094 169.21875 105.355469 170.265625 C 105.222656 171.265625 104.96875 172.574219 104.742188 173.734375 L 104.710938 173.886719 L 104.710938 173.898438 L 104.707031 173.90625 C 104.476562 175.101562 104.273438 176.128906 102.957031 177.476562 C 101.636719 178.824219 99.199219 180.492188 97.242188 181.390625 C 95.503906 182.1875 94.144531 182.378906 93.066406 182.53125 C 92.929688 182.550781 92.796875 182.566406 92.667969 182.585938 C 91.535156 182.753906 90.734375 182.964844 89.421875 183.382812 C 88.957031 183.527344 88.425781 183.699219 87.886719 183.875 C 87.316406 184.0625 86.734375 184.25 86.195312 184.421875 C 85.792969 184.546875 85.417969 184.664062 85.085938 184.757812 C 83.898438 185.101562 83.347656 185.171875 82.800781 185.242188 C 82.796875 185.242188 82.792969 185.242188 82.789062 185.242188 C 81.992188 185.15625 81.191406 185.074219 80.285156 184.796875 C 80.023438 184.71875 79.753906 184.625 79.484375 184.527344 C 79.210938 184.433594 78.933594 184.335938 78.664062 184.253906 C 78.273438 184.132812 77.890625 184.046875 77.542969 184.035156 C 77.488281 184.035156 77.433594 184.035156 77.378906 184.035156 C 76.890625 184.054688 76.460938 184.207031 76.070312 184.347656 C 75.859375 184.425781 75.65625 184.496094 75.46875 184.539062 C 75.355469 184.5625 75.246094 184.574219 75.140625 184.578125 C 74.765625 184.59375 74.433594 184.492188 74.085938 184.382812 C 74.035156 184.367188 73.984375 184.351562 73.933594 184.335938 C 73.449219 184.191406 72.902344 184.058594 72.292969 184.082031 C 72.253906 184.082031 72.21875 184.085938 72.179688 184.085938 C 71.523438 184.128906 70.785156 184.355469 70.039062 184.582031 L 70.023438 184.585938 C 69.109375 184.835938 68.1875 185.082031 67.214844 185.117188 C 66.972656 185.125 66.726562 185.121094 66.476562 185.097656 C 65.402344 185.007812 64.253906 184.609375 63.304688 184.28125 C 63.144531 184.226562 62.992188 184.171875 62.84375 184.121094 C 62.191406 183.902344 61.671875 183.753906 61.199219 183.621094 C 60.929688 183.546875 60.675781 183.472656 60.425781 183.394531 C 60.265625 183.34375 60.105469 183.292969 59.945312 183.242188 C 59.78125 183.1875 59.613281 183.132812 59.445312 183.082031 C 59.0625 182.960938 58.664062 182.851562 58.226562 182.777344 C 57.941406 182.726562 57.636719 182.691406 57.308594 182.652344 C 56.933594 182.609375 56.523438 182.5625 56.078125 182.484375 C 55.8125 182.4375 55.53125 182.382812 55.238281 182.308594 C 54.019531 182.003906 52.539062 181.421875 50.816406 180.53125 C 49.09375 179.640625 47.121094 178.4375 45.96875 176.21875 C 44.816406 174.007812 44.492188 170.792969 44.386719 169.011719 C 44.292969 167.425781 44.378906 166.964844 44.449219 166.554688 C 44.460938 166.503906 44.46875 166.457031 44.476562 166.40625 C 44.554688 165.949219 44.585938 165.398438 44.269531 164.785156 C 44.003906 164.28125 43.503906 163.730469 42.988281 163.171875 C 42.871094 163.046875 42.757812 162.921875 42.644531 162.792969 C 42.027344 162.105469 41.476562 161.421875 40.964844 160.632812 C 40.453125 159.847656 39.980469 158.957031 39.761719 158.015625 C 39.542969 157.078125 39.585938 156.097656 39.625 155.121094 C 39.675781 154.285156 39.726562 153.445312 39.894531 152.449219 C 40.019531 151.703125 40.207031 150.871094 40.414062 149.972656 C 40.480469 149.671875 40.550781 149.363281 40.621094 149.042969 C 40.902344 147.785156 41.179688 146.421875 41.097656 145.378906 C 41.042969 144.660156 40.820312 144.089844 40.605469 143.542969 C 40.507812 143.300781 40.414062 143.0625 40.339844 142.820312 C 40.09375 142.027344 40.046875 141.1875 40.03125 140.335938 C 40.023438 139.957031 40.023438 139.578125 40.023438 139.167969 C 40.023438 138.675781 40.023438 138.140625 40.015625 137.503906 C 40.011719 137.464844 40.011719 137.417969 40.011719 137.375 C 39.988281 136.140625 39.921875 134.550781 39.664062 133.125 C 39.578125 132.628906 39.464844 132.152344 39.347656 131.652344 C 39.222656 131.109375 39.085938 130.539062 38.972656 129.890625 C 38.886719 129.421875 38.8125 128.917969 38.757812 128.351562 C 38.550781 126.300781 38.578125 123.457031 38.589844 121.890625 L 38.589844 121.683594 C 38.605469 120.253906 38.609375 120.007812 38.828125 118.457031 C 39.050781 116.855469 39.503906 113.863281 39.957031 110.875 C 39.960938 110.847656 39.984375 110.828125 40.007812 110.832031 C 40.035156 110.835938 40.054688 110.863281 40.050781 110.886719 C 39.597656 113.878906 39.144531 116.871094 38.921875 118.46875 C 38.703125 120.019531 38.699219 120.257812 38.6875 121.683594 L 38.683594 121.75 L 38.683594 121.890625 C 38.671875 123.457031 38.644531 126.296875 38.851562 128.339844 C 38.90625 128.90625 38.980469 129.410156 39.0625 129.871094 C 39.179688 130.519531 39.3125 131.089844 39.441406 131.632812 C 39.558594 132.128906 39.667969 132.609375 39.757812 133.105469 C 40.015625 134.539062 40.082031 136.140625 40.105469 137.375 C 40.105469 137.417969 40.105469 137.460938 40.109375 137.503906 C 40.121094 138.136719 40.121094 138.675781 40.121094 139.167969 C 40.121094 139.578125 40.121094 139.957031 40.125 140.332031 C 40.140625 141.183594 40.191406 142.011719 40.429688 142.789062 C 40.503906 143.03125 40.597656 143.265625 40.691406 143.507812 C 40.90625 144.054688 41.136719 144.636719 41.191406 145.371094 C 41.273438 146.433594 40.996094 147.808594 40.714844 149.066406 C 40.644531 149.382812 40.574219 149.691406 40.503906 149.996094 C 40.300781 150.894531 40.113281 151.722656 39.988281 152.464844 C 39.820312 153.453125 39.773438 154.289062 39.722656 155.128906 L 39.722656 155.125 C 39.679688 156.101562 39.640625 157.070312 39.851562 157.996094 C 40.066406 158.917969 40.535156 159.796875 41.042969 160.582031 C 41.550781 161.363281 42.097656 162.046875 42.714844 162.730469 C 42.828125 162.855469 42.941406 162.980469 43.058594 163.105469 C 43.570312 163.664062 44.082031 164.222656 44.351562 164.742188 C 44.683594 165.382812 44.648438 165.957031 44.570312 166.421875 C 44.5625 166.472656 44.554688 166.523438 44.542969 166.574219 C 44.472656 166.972656 44.390625 167.425781 44.480469 169.007812 C 44.585938 170.785156 44.910156 173.984375 46.050781 176.175781 C 47.1875 178.363281 49.140625 179.558594 50.859375 180.449219 C 52.578125 181.335938 54.050781 181.914062 55.261719 182.214844 C 55.554688 182.289062 55.828125 182.34375 56.09375 182.390625 C 56.539062 182.46875 56.941406 182.515625 57.320312 182.558594 C 57.648438 182.597656 57.953125 182.632812 58.242188 182.683594 C 58.683594 182.761719 59.089844 182.871094 59.472656 182.992188 C 59.644531 183.042969 59.808594 183.097656 59.972656 183.152344 C 60.132812 183.203125 60.292969 183.253906 60.453125 183.304688 C 60.703125 183.382812 60.957031 183.453125 61.226562 183.53125 C 61.695312 183.664062 62.21875 183.8125 62.871094 184.035156 C 63.023438 184.082031 63.175781 184.136719 63.335938 184.191406 C 64.289062 184.523438 65.425781 184.914062 66.484375 185.003906 C 66.730469 185.027344 66.972656 185.03125 67.210938 185.023438 C 68.171875 184.988281 69.082031 184.742188 70 184.496094 L 70.015625 184.492188 L 70.011719 184.492188 C 70.753906 184.265625 71.503906 184.035156 72.175781 183.992188 C 72.214844 183.988281 72.25 183.988281 72.289062 183.988281 C 72.917969 183.964844 73.472656 184.101562 73.960938 184.246094 C 74.011719 184.261719 74.0625 184.277344 74.113281 184.292969 C 74.464844 184.402344 74.78125 184.496094 75.136719 184.484375 C 75.234375 184.480469 75.339844 184.46875 75.449219 184.445312 C 75.628906 184.40625 75.824219 184.335938 76.039062 184.257812 C 76.425781 184.121094 76.871094 183.960938 77.375 183.941406 C 77.429688 183.941406 77.488281 183.941406 77.546875 183.941406 C 77.90625 183.953125 78.296875 184.042969 78.691406 184.164062 C 78.964844 184.246094 79.242188 184.34375 79.515625 184.441406 C 79.785156 184.535156 80.054688 184.628906 80.3125 184.707031 C 81.207031 184.980469 82 185.0625 82.800781 185.148438 L 82.789062 185.148438 C 83.332031 185.078125 83.878906 185.011719 85.0625 184.667969 C 85.390625 184.574219 85.765625 184.457031 86.167969 184.332031 C 86.707031 184.160156 87.289062 183.972656 87.859375 183.785156 C 88.398438 183.609375 88.929688 183.4375 89.390625 183.292969 C 90.707031 182.875 91.511719 182.664062 92.652344 182.492188 C 92.785156 182.472656 92.917969 182.457031 93.054688 182.4375 C 94.128906 182.285156 95.480469 182.097656 97.203125 181.304688 C 99.152344 180.410156 101.578125 178.75 102.886719 177.410156 C 104.183594 176.082031 104.382812 175.078125 104.613281 173.890625 L 104.617188 173.878906 L 104.617188 173.871094 L 104.648438 173.714844 C 104.875 172.554688 105.128906 171.25 105.261719 170.253906 C 105.398438 169.214844 105.40625 168.507812 105.335938 167.847656 C 105.316406 167.648438 105.289062 167.453125 105.261719 167.257812 C 105.199219 166.808594 105.136719 166.371094 105.171875 165.949219 C 105.222656 165.34375 105.46875 164.773438 105.886719 164.148438 C 106.304688 163.523438 106.898438 162.84375 107.488281 162.167969 L 107.488281 162.171875 C 108.523438 160.84375 109.554688 159.527344 109.929688 157.859375 C 110.304688 156.191406 110.023438 154.167969 109.75 152.496094 C 109.476562 150.839844 109.207031 149.542969 108.941406 148.246094 L 108.933594 148.207031 C 108.753906 147.050781 108.570312 145.886719 108.632812 145.121094 C 108.660156 144.820312 108.722656 144.582031 108.796875 144.371094 C 108.863281 144.203125 108.933594 144.050781 109.003906 143.902344 C 109.078125 143.753906 109.144531 143.609375 109.203125 143.453125 C 109.394531 142.933594 109.476562 142.253906 109.554688 141.566406 C 109.554688 141.5625 109.554688 141.5625 109.554688 141.5625 C 109.632812 141.117188 109.710938 140.675781 109.730469 139.574219 C 109.738281 139.214844 109.738281 138.78125 109.738281 138.316406 C 109.742188 137.359375 109.742188 136.253906 109.796875 135.328125 C 109.882812 133.953125 110.082031 132.96875 110.285156 131.988281 C 110.5625 130.839844 110.835938 129.699219 110.96875 128.371094 C 111.101562 127.042969 111.089844 125.527344 111.078125 124.011719 C 111.089844 122.660156 111.097656 121.308594 111.039062 120.140625 C 110.976562 118.972656 110.847656 117.984375 110.714844 116.996094 L 110.097656 112.5 L 110.183594 112.519531 L 109.710938 113.21875 L 109.71875 113.195312 L 109.605469 116.953125 C 109.605469 116.953125 109.605469 116.953125 109.605469 116.957031 L 108.917969 122.984375 C 108.757812 123.929688 108.59375 124.886719 107.894531 125.84375 C 107.585938 126.269531 107.171875 126.695312 106.757812 127.121094 C 106.234375 127.65625 105.714844 128.191406 105.382812 128.738281 C 105.160156 129.105469 105.019531 129.480469 104.929688 129.835938 C 104.84375 130.167969 104.796875 130.480469 104.757812 130.757812 C 104.726562 130.972656 104.695312 131.164062 104.65625 131.324219 C 104.535156 131.792969 104.300781 131.964844 104.085938 132.085938 C 104.058594 132.101562 104.027344 132.117188 104 132.132812 C 103.972656 132.148438 103.949219 132.160156 103.925781 132.175781 C 103.835938 132.222656 103.757812 132.277344 103.675781 132.332031 C 103.53125 132.429688 103.378906 132.53125 103.160156 132.625 C 102.832031 132.769531 102.351562 132.902344 101.796875 133.050781 L 101.757812 133.0625 L 101.714844 133.074219 C 101.121094 133.234375 100.445312 133.417969 99.9375 133.699219 C 99.433594 133.976562 99.097656 134.347656 98.832031 134.820312 C 98.570312 135.296875 98.378906 135.871094 98.078125 137.191406 C 97.777344 138.507812 97.367188 140.566406 96.953125 142.621094 C 96.949219 142.636719 96.941406 142.648438 96.929688 142.65625 C 96.917969 142.660156 96.902344 142.664062 96.890625 142.65625 L 89.226562 139.453125 C 89.226562 139.453125 89.222656 139.453125 89.222656 139.449219 C 87.902344 138.59375 86.585938 137.738281 85.707031 137.183594 C 84.824219 136.632812 84.378906 136.378906 83.933594 136.128906 C 83.933594 136.128906 83.933594 136.128906 83.929688 136.125 C 83.230469 135.621094 82.535156 135.117188 81.617188 134.671875 C 80.695312 134.226562 79.550781 133.839844 78.773438 133.730469 C 78.566406 133.703125 78.390625 133.695312 78.226562 133.699219 C 77.769531 133.714844 77.433594 133.855469 77 134.050781 C 76.414062 134.316406 75.667969 134.683594 74.917969 135.054688 L 74.898438 135.0625 C 74.886719 135.070312 74.871094 135.070312 74.855469 135.0625 C 74.050781 134.625 73.253906 134.1875 72.628906 133.945312 C 72.125 133.753906 71.738281 133.691406 71.335938 133.703125 C 71.238281 133.707031 71.136719 133.714844 71.035156 133.726562 C 70.511719 133.789062 69.917969 133.957031 69.425781 134.113281 C 68.933594 134.269531 68.550781 134.417969 67.03125 135.332031 C 65.515625 136.25 62.867188 137.933594 60.21875 139.621094 C 60.21875 139.621094 60.214844 139.621094 60.210938 139.625 C 59.296875 140.007812 58.378906 140.390625 57.140625 140.878906 C 55.902344 141.367188 54.339844 141.957031 52.777344 142.542969 C 52.765625 142.550781 52.75 142.546875 52.738281 142.542969 C 52.726562 142.535156 52.71875 142.523438 52.714844 142.507812 C 52.351562 140.394531 51.984375 138.285156 51.609375 136.835938 C 51.230469 135.390625 50.84375 134.617188 50.441406 134.167969 C 50.085938 133.777344 49.71875 133.632812 49.128906 133.425781 C 49.085938 133.410156 49.046875 133.398438 49.003906 133.382812 C 48.960938 133.367188 48.914062 133.351562 48.867188 133.335938 C 48.125 133.078125 47.078125 132.691406 46.027344 132.304688 L 46.015625 132.300781 C 46.011719 132.296875 46.007812 132.296875 46.003906 132.292969 C 45.628906 132.03125 45.234375 131.757812 45.085938 131.214844 C 45.046875 131.066406 45.023438 130.902344 45 130.71875 C 44.9375 130.234375 44.855469 129.617188 44.382812 128.851562 C 44.308594 128.726562 44.21875 128.597656 44.121094 128.464844 C 43.746094 127.953125 43.25 127.394531 42.773438 126.863281 C 42.34375 126.378906 41.929688 125.914062 41.648438 125.527344 C 41.175781 124.878906 41.0625 124.433594 40.984375 123.789062 C 40.96875 123.65625 40.953125 123.515625 40.9375 123.367188 C 40.917969 123.1875 40.898438 122.992188 40.871094 122.773438 C 40.816406 122.332031 40.738281 121.800781 40.648438 121.207031 C 40.476562 120.050781 40.269531 118.660156 40.152344 117.257812 C 39.96875 115.136719 39.988281 112.996094 40.003906 110.855469 L 40.003906 110.84375 C 40.003906 110.820312 40.023438 110.796875 40.050781 110.796875 C 40.078125 110.796875 40.097656 110.816406 40.097656 110.84375 C 40.097656 110.871094 40.078125 110.890625 40.054688 110.894531 C 40.027344 110.894531 40.003906 110.875 40.003906 110.847656 Z M 40.003906 110.847656 " fill-opacity="1" fill-rule="nonzero"/></g><g clip-path="url(#id3)"><path fill="#000000" d="M 40 111.199219 L 39.996094 111.203125 L 39.992188 111.226562 C 39.558594 114.101562 39.132812 116.929688 38.914062 118.46875 C 38.695312 120.015625 38.691406 120.257812 38.679688 121.683594 L 38.679688 121.890625 C 38.664062 123.457031 38.640625 126.296875 38.84375 128.34375 C 38.902344 128.90625 38.976562 129.410156 39.058594 129.875 C 39.175781 130.519531 39.308594 131.089844 39.433594 131.632812 C 39.550781 132.132812 39.664062 132.609375 39.753906 133.109375 C 40.007812 134.539062 40.074219 136.140625 40.101562 137.375 C 40.101562 137.417969 40.101562 137.460938 40.101562 137.503906 C 40.113281 138.136719 40.113281 138.675781 40.113281 139.167969 C 40.113281 139.578125 40.113281 139.957031 40.121094 140.332031 C 40.136719 141.1875 40.183594 142.015625 40.425781 142.792969 C 40.5 143.03125 40.589844 143.265625 40.6875 143.507812 L 40.6875 143.511719 C 40.902344 144.058594 41.132812 144.636719 41.1875 145.371094 C 41.269531 146.429688 40.988281 147.804688 40.710938 149.0625 C 40.636719 149.382812 40.570312 149.6875 40.5 149.992188 C 40.292969 150.890625 40.105469 151.722656 39.980469 152.464844 C 39.816406 153.453125 39.765625 154.289062 39.714844 155.128906 L 39.71875 155.132812 L 39.714844 155.128906 C 39.675781 156.105469 39.632812 157.074219 39.847656 157.996094 C 40.0625 158.921875 40.53125 159.800781 41.039062 160.585938 C 41.546875 161.367188 42.09375 162.050781 42.710938 162.734375 C 42.824219 162.859375 42.9375 162.984375 43.050781 163.109375 L 43.054688 163.113281 C 43.566406 163.671875 44.078125 164.226562 44.347656 164.746094 C 44.679688 165.382812 44.640625 165.957031 44.566406 166.421875 C 44.554688 166.472656 44.546875 166.519531 44.539062 166.570312 L 44.539062 166.574219 C 44.464844 166.976562 44.382812 167.429688 44.476562 169.007812 C 44.582031 170.785156 44.90625 173.984375 46.046875 176.179688 C 47.183594 178.371094 49.136719 179.566406 50.855469 180.453125 C 52.574219 181.34375 54.046875 181.921875 55.257812 182.222656 C 55.550781 182.292969 55.828125 182.351562 56.09375 182.398438 C 56.539062 182.472656 56.941406 182.519531 57.320312 182.566406 L 57.324219 182.566406 C 57.648438 182.605469 57.953125 182.640625 58.242188 182.691406 C 58.683594 182.765625 59.085938 182.878906 59.472656 182.996094 C 59.640625 183.050781 59.808594 183.101562 59.972656 183.15625 L 59.976562 183.15625 C 60.136719 183.210938 60.292969 183.261719 60.453125 183.308594 C 60.703125 183.386719 60.953125 183.460938 61.222656 183.535156 C 61.695312 183.671875 62.214844 183.820312 62.871094 184.039062 C 63.019531 184.089844 63.175781 184.144531 63.335938 184.199219 C 64.285156 184.527344 65.421875 184.921875 66.484375 185.011719 C 66.65625 185.023438 66.820312 185.03125 66.988281 185.03125 C 67.0625 185.03125 67.136719 185.03125 67.210938 185.027344 C 68.171875 184.992188 69.085938 184.75 70 184.5 L 70.015625 184.496094 L 70.023438 184.496094 C 70.761719 184.269531 71.507812 184.042969 72.175781 184 C 72.214844 183.996094 72.25 183.992188 72.289062 183.992188 C 72.335938 183.992188 72.378906 183.992188 72.425781 183.992188 C 72.996094 183.992188 73.507812 184.117188 73.957031 184.25 C 74.011719 184.269531 74.058594 184.28125 74.113281 184.296875 C 74.441406 184.398438 74.742188 184.492188 75.074219 184.492188 C 75.09375 184.492188 75.117188 184.492188 75.136719 184.492188 C 75.238281 184.488281 75.339844 184.476562 75.449219 184.453125 C 75.632812 184.414062 75.828125 184.339844 76.042969 184.265625 L 76.046875 184.261719 C 76.433594 184.125 76.875 183.964844 77.375 183.949219 C 77.402344 183.945312 77.433594 183.945312 77.464844 183.945312 C 77.492188 183.945312 77.519531 183.945312 77.546875 183.949219 C 77.90625 183.960938 78.292969 184.050781 78.6875 184.167969 C 78.960938 184.25 79.238281 184.347656 79.511719 184.445312 L 79.515625 184.445312 C 79.785156 184.539062 80.050781 184.632812 80.308594 184.710938 C 81.203125 184.984375 81.996094 185.066406 82.792969 185.152344 L 82.800781 185.148438 L 82.792969 185.152344 C 83.335938 185.085938 83.882812 185.015625 85.0625 184.671875 C 85.390625 184.578125 85.765625 184.464844 86.167969 184.335938 C 86.703125 184.167969 87.292969 183.976562 87.859375 183.792969 L 87.933594 183.765625 C 88.453125 183.597656 88.949219 183.4375 89.394531 183.296875 C 90.710938 182.882812 91.515625 182.667969 92.65625 182.5 C 92.78125 182.480469 92.914062 182.460938 93.050781 182.441406 L 93.054688 182.441406 C 94.132812 182.292969 95.480469 182.101562 97.207031 181.3125 C 99.15625 180.417969 101.582031 178.753906 102.890625 177.414062 C 104.191406 176.085938 104.390625 175.078125 104.621094 173.890625 L 104.621094 173.878906 L 104.625 173.871094 L 104.652344 173.71875 L 104.65625 173.714844 C 104.878906 172.554688 105.132812 171.25 105.265625 170.253906 C 105.40625 169.214844 105.414062 168.507812 105.34375 167.847656 C 105.324219 167.648438 105.296875 167.449219 105.269531 167.257812 L 105.269531 167.253906 L 105.265625 167.25 C 105.203125 166.804688 105.144531 166.371094 105.179688 165.949219 C 105.226562 165.347656 105.472656 164.773438 105.890625 164.152344 C 106.308594 163.527344 106.902344 162.851562 107.492188 162.175781 L 107.5 162.164062 C 108.535156 160.839844 109.5625 159.523438 109.933594 157.863281 C 110.308594 156.191406 110.03125 154.167969 109.753906 152.496094 C 109.480469 150.839844 109.214844 149.539062 108.945312 148.246094 L 108.9375 148.207031 C 108.9375 148.207031 108.9375 148.207031 108.9375 148.203125 L 108.9375 148.191406 C 108.757812 147.042969 108.574219 145.882812 108.640625 145.121094 C 108.664062 144.824219 108.726562 144.585938 108.804688 144.375 L 108.804688 144.371094 C 108.867188 144.203125 108.9375 144.054688 109.011719 143.90625 C 109.082031 143.757812 109.152344 143.613281 109.210938 143.453125 C 109.402344 142.933594 109.480469 142.253906 109.5625 141.566406 C 109.5625 141.566406 109.5625 141.5625 109.5625 141.5625 C 109.640625 141.117188 109.714844 140.675781 109.738281 139.574219 C 109.742188 139.210938 109.746094 138.78125 109.746094 138.316406 L 109.746094 138.3125 C 109.746094 137.355469 109.75 136.253906 109.804688 135.328125 C 109.886719 133.953125 110.089844 132.972656 110.292969 131.992188 L 110.292969 131.988281 C 110.566406 130.84375 110.839844 129.699219 110.972656 128.371094 C 111.105469 127.042969 111.097656 125.527344 111.085938 124.011719 C 111.09375 122.660156 111.105469 121.308594 111.042969 120.140625 C 110.984375 118.972656 110.855469 117.984375 110.722656 116.996094 L 110.722656 116.992188 L 110.121094 112.621094 L 110.109375 112.617188 L 109.714844 113.207031 L 109.597656 116.953125 C 109.597656 116.953125 109.597656 116.953125 109.597656 116.957031 L 108.910156 122.984375 L 108.910156 122.992188 C 108.75 123.933594 108.589844 124.882812 107.890625 125.839844 C 107.582031 126.265625 107.167969 126.6875 106.753906 127.113281 L 106.753906 127.117188 C 106.230469 127.648438 105.707031 128.1875 105.375 128.734375 C 105.152344 129.101562 105.015625 129.476562 104.925781 129.832031 C 104.835938 130.167969 104.792969 130.480469 104.75 130.757812 C 104.71875 130.972656 104.691406 131.164062 104.648438 131.320312 C 104.53125 131.789062 104.296875 131.960938 104.082031 132.082031 C 104.054688 132.097656 104.027344 132.113281 104 132.128906 C 103.972656 132.144531 103.949219 132.15625 103.921875 132.167969 C 103.832031 132.21875 103.753906 132.273438 103.671875 132.328125 L 103.667969 132.332031 L 103.671875 132.328125 L 103.667969 132.328125 C 103.527344 132.425781 103.375 132.523438 103.160156 132.621094 C 102.832031 132.765625 102.351562 132.894531 101.792969 133.046875 L 101.753906 133.058594 L 101.714844 133.066406 C 101.121094 133.230469 100.441406 133.414062 99.933594 133.691406 C 99.429688 133.972656 99.09375 134.34375 98.828125 134.816406 C 98.5625 135.292969 98.375 135.871094 98.070312 137.191406 C 97.769531 138.507812 97.359375 140.566406 96.949219 142.621094 C 96.945312 142.632812 96.9375 142.644531 96.925781 142.648438 C 96.921875 142.652344 96.914062 142.65625 96.90625 142.65625 C 96.902344 142.65625 96.898438 142.652344 96.890625 142.652344 L 89.230469 139.449219 C 89.226562 139.449219 89.226562 139.445312 89.222656 139.445312 C 87.90625 138.589844 86.589844 137.734375 85.710938 137.179688 C 84.828125 136.625 84.382812 136.375 83.9375 136.125 C 83.9375 136.125 83.933594 136.121094 83.933594 136.121094 C 83.234375 135.617188 82.539062 135.113281 81.617188 134.667969 C 80.695312 134.222656 79.554688 133.835938 78.773438 133.726562 C 78.605469 133.703125 78.457031 133.691406 78.316406 133.691406 C 78.289062 133.691406 78.257812 133.691406 78.226562 133.691406 C 77.769531 133.710938 77.429688 133.847656 76.996094 134.046875 C 76.414062 134.3125 75.667969 134.679688 74.917969 135.046875 L 74.898438 135.058594 C 74.890625 135.0625 74.886719 135.0625 74.878906 135.0625 C 74.871094 135.0625 74.863281 135.0625 74.859375 135.058594 C 74.054688 134.617188 73.253906 134.179688 72.628906 133.941406 C 72.171875 133.765625 71.808594 133.695312 71.441406 133.695312 C 71.40625 133.695312 71.371094 133.699219 71.335938 133.699219 C 71.238281 133.703125 71.136719 133.710938 71.035156 133.722656 C 70.511719 133.785156 69.914062 133.953125 69.421875 134.109375 C 68.933594 134.265625 68.546875 134.410156 67.03125 135.328125 C 65.511719 136.242188 62.863281 137.929688 60.214844 139.613281 C 60.214844 139.617188 60.210938 139.617188 60.210938 139.617188 L 60.207031 139.617188 L 60.207031 139.621094 C 59.289062 140.003906 58.375 140.386719 57.136719 140.875 C 55.898438 141.359375 54.335938 141.949219 52.777344 142.539062 C 52.773438 142.539062 52.765625 142.542969 52.761719 142.542969 C 52.753906 142.542969 52.746094 142.539062 52.742188 142.535156 C 52.730469 142.53125 52.722656 142.519531 52.722656 142.507812 C 52.355469 140.394531 51.992188 138.28125 51.613281 136.835938 C 51.238281 135.390625 50.851562 134.613281 50.445312 134.164062 C 50.089844 133.773438 49.71875 133.625 49.128906 133.421875 C 49.074219 133.402344 49.066406 133.398438 49.011719 133.378906 L 49.007812 133.378906 L 48.96875 133.363281 C 48.945312 133.355469 48.894531 133.339844 48.871094 133.328125 C 48.128906 133.070312 47.078125 132.683594 46.03125 132.296875 L 46.019531 132.292969 C 46.015625 132.292969 46.011719 132.292969 46.007812 132.289062 L 46 132.28125 C 45.625 132.023438 45.238281 131.75 45.09375 131.214844 C 45.050781 131.066406 45.03125 130.902344 45.007812 130.71875 C 44.941406 130.234375 44.863281 129.613281 44.390625 128.851562 L 44.390625 128.847656 C 44.3125 128.726562 44.222656 128.59375 44.128906 128.464844 C 43.753906 127.949219 43.253906 127.390625 42.78125 126.859375 L 42.777344 126.855469 C 42.347656 126.371094 41.933594 125.910156 41.652344 125.523438 C 41.183594 124.878906 41.066406 124.429688 40.988281 123.789062 C 40.972656 123.65625 40.957031 123.515625 40.941406 123.363281 C 40.925781 123.183594 40.902344 122.988281 40.878906 122.773438 C 40.824219 122.332031 40.746094 121.800781 40.65625 121.207031 L 40.65625 121.203125 C 40.484375 120.046875 40.277344 118.65625 40.15625 117.253906 C 39.984375 115.253906 39.992188 113.226562 40.007812 111.203125 Z M 40 111.199219 " fill-opacity="1" fill-rule="nonzero"/></g><path fill="#000000" d="M 56.445312 49.617188 L 56.527344 49.65625 C 54.546875 52.082031 52.574219 54.5 51.476562 57.023438 C 50.378906 59.546875 50.15625 62.175781 50.316406 64.078125 C 50.480469 65.976562 51.023438 67.144531 51.742188 68.265625 C 52.464844 69.386719 53.363281 70.457031 54.265625 71.53125 C 54.277344 71.546875 54.277344 71.566406 54.269531 71.585938 C 54.257812 71.601562 54.238281 71.609375 54.21875 71.605469 L 54.214844 71.605469 C 53.609375 71.472656 52.992188 71.335938 52.210938 70.539062 C 51.429688 69.75 50.480469 68.308594 49.675781 67.058594 C 48.867188 65.808594 48.199219 64.738281 47.742188 63.21875 C 47.285156 61.699219 47.039062 59.722656 47.824219 57.773438 C 48.605469 55.828125 50.410156 53.917969 52.019531 52.566406 C 53.625 51.210938 55.042969 50.417969 56.453125 49.625 C 56.476562 49.609375 56.507812 49.617188 56.519531 49.640625 C 56.53125 49.664062 56.523438 49.691406 56.5 49.707031 C 55.089844 50.5 53.679688 51.292969 52.078125 52.636719 C 50.476562 53.984375 48.683594 55.886719 47.910156 57.808594 C 47.136719 59.730469 47.378906 61.683594 47.832031 63.191406 C 48.285156 64.699219 48.949219 65.757812 49.753906 67.007812 C 50.5625 68.261719 51.503906 69.691406 52.277344 70.472656 C 53.042969 71.25 53.636719 71.378906 54.238281 71.511719 L 54.238281 71.515625 L 54.191406 71.589844 C 53.292969 70.519531 52.390625 69.441406 51.664062 68.316406 C 50.9375 67.183594 50.386719 66 50.222656 64.085938 C 50.0625 62.171875 50.285156 59.527344 51.390625 56.988281 C 52.492188 54.449219 54.476562 52.019531 56.457031 49.597656 C 56.46875 49.578125 56.492188 49.574219 56.511719 49.582031 C 56.53125 49.59375 56.542969 49.613281 56.539062 49.636719 C 56.535156 49.660156 56.507812 49.679688 56.484375 49.671875 C 56.457031 49.667969 56.441406 49.644531 56.445312 49.617188 Z M 56.445312 49.617188 " fill-opacity="1" fill-rule="nonzero"/><path fill="#000000" d="M 87.421875 50.5625 L 87.457031 50.640625 L 87.433594 50.640625 C 86.542969 50.660156 85.632812 50.679688 82.628906 50.773438 C 79.597656 50.871094 74.449219 51.039062 70.082031 53.25 C 65.714844 55.460938 62.128906 59.714844 58.53125 63.980469 C 58.515625 63.996094 58.492188 64 58.472656 63.992188 C 58.453125 63.980469 58.445312 63.957031 58.449219 63.933594 C 59.082031 61.757812 59.71875 59.570312 60.925781 57.40625 C 62.136719 55.246094 63.917969 53.105469 66.136719 51.425781 C 68.359375 49.746094 71.023438 48.527344 73.804688 47.960938 C 76.589844 47.390625 79.492188 47.476562 81.792969 48.011719 C 84.097656 48.546875 85.792969 49.539062 87.484375 50.523438 C 87.507812 50.539062 87.515625 50.566406 87.5 50.589844 C 87.488281 50.613281 87.457031 50.621094 87.4375 50.605469 C 85.746094 49.621094 84.058594 48.636719 81.773438 48.105469 C 79.484375 47.570312 76.59375 47.488281 73.824219 48.050781 C 71.054688 48.617188 68.40625 49.828125 66.195312 51.5 C 63.984375 53.171875 62.210938 55.300781 61.007812 57.453125 C 59.808594 59.605469 59.175781 61.78125 58.539062 63.960938 L 58.460938 63.917969 C 62.050781 59.660156 65.652344 55.386719 70.039062 53.167969 C 74.429688 50.945312 79.597656 50.773438 82.625 50.679688 C 85.628906 50.585938 86.539062 50.566406 87.429688 50.546875 L 87.457031 50.546875 C 87.476562 50.546875 87.492188 50.558594 87.5 50.574219 C 87.507812 50.59375 87.503906 50.613281 87.492188 50.628906 C 87.472656 50.644531 87.441406 50.644531 87.421875 50.628906 C 87.40625 50.609375 87.40625 50.578125 87.421875 50.5625 Z M 87.421875 50.5625 " fill-opacity="1" fill-rule="nonzero"/><path fill="#000000" d="M 94.6875 55.601562 L 94.699219 55.691406 C 92.148438 55.210938 89.601562 54.730469 86.832031 54.992188 C 84.0625 55.253906 81.0625 56.261719 78.816406 57.339844 C 76.574219 58.421875 75.078125 59.578125 73.582031 60.734375 C 73.566406 60.746094 73.542969 60.746094 73.527344 60.738281 C 73.507812 60.726562 73.5 60.703125 73.507812 60.683594 C 73.789062 59.558594 74.074219 58.425781 75.042969 57.253906 C 76.007812 56.082031 77.652344 54.878906 79.894531 54.207031 C 82.136719 53.539062 84.980469 53.40625 87.539062 53.726562 C 90.101562 54.050781 92.382812 54.832031 94.660156 55.609375 C 94.6875 55.617188 94.699219 55.644531 94.691406 55.667969 C 94.683594 55.695312 94.65625 55.707031 94.632812 55.699219 C 92.351562 54.921875 90.078125 54.144531 87.527344 53.820312 C 84.976562 53.5 82.148438 53.632812 79.921875 54.296875 C 77.695312 54.960938 76.066406 56.160156 75.113281 57.3125 C 74.164062 58.46875 73.882812 59.582031 73.597656 60.707031 L 73.523438 60.660156 C 75.019531 59.5 76.523438 58.339844 78.777344 57.257812 C 81.03125 56.171875 84.039062 55.160156 86.820312 54.898438 C 89.605469 54.632812 92.167969 55.117188 94.71875 55.597656 C 94.738281 55.601562 94.753906 55.617188 94.753906 55.636719 C 94.757812 55.65625 94.75 55.675781 94.730469 55.6875 C 94.707031 55.699219 94.679688 55.6875 94.667969 55.667969 C 94.65625 55.644531 94.664062 55.613281 94.6875 55.601562 Z M 94.6875 55.601562 " fill-opacity="1" fill-rule="nonzero"/><path fill="#000000" d="M 113.320312 70.628906 L 113.289062 70.707031 L 112.859375 70.183594 L 111.90625 69.035156 L 111.90625 69.039062 C 110.789062 67.859375 109.671875 66.6875 108.28125 65.734375 C 106.886719 64.785156 105.214844 64.058594 102.867188 63.148438 C 100.523438 62.234375 97.511719 61.140625 95.285156 60.539062 C 93.058594 59.9375 91.617188 59.828125 89.8125 60.175781 C 88.003906 60.523438 85.832031 61.328125 84.074219 62.289062 C 82.316406 63.246094 80.96875 64.359375 79.621094 65.476562 C 79.601562 65.488281 79.574219 65.488281 79.558594 65.472656 C 79.539062 65.453125 79.539062 65.429688 79.554688 65.410156 C 81.578125 62.847656 83.617188 60.273438 86.816406 59.328125 C 90.003906 58.386719 94.339844 59.066406 97.085938 59.496094 L 97.109375 59.5 L 97.265625 59.523438 C 99.898438 59.9375 101.050781 60.121094 102.554688 60.699219 C 104.085938 61.289062 105.984375 62.289062 107.574219 63.523438 C 109.167969 64.753906 110.449219 66.21875 111.351562 67.425781 C 112.253906 68.632812 112.777344 69.578125 113.300781 70.523438 C 113.316406 70.546875 113.308594 70.578125 113.285156 70.589844 C 113.261719 70.601562 113.234375 70.59375 113.21875 70.570312 C 112.695312 69.625 112.175781 68.683594 111.277344 67.480469 C 110.375 66.28125 109.101562 64.824219 107.519531 63.597656 C 105.933594 62.371094 104.042969 61.375 102.519531 60.785156 C 101.027344 60.210938 99.886719 60.03125 97.25 59.617188 L 97.171875 59.605469 L 97.097656 59.59375 L 97.09375 59.59375 L 97.074219 59.589844 C 94.320312 59.160156 90.007812 58.484375 86.84375 59.417969 C 83.675781 60.355469 81.65625 62.902344 79.628906 65.46875 L 79.558594 65.402344 C 80.910156 64.285156 82.261719 63.167969 84.027344 62.203125 C 85.792969 61.242188 87.976562 60.433594 89.792969 60.082031 C 91.617188 59.734375 93.074219 59.84375 95.308594 60.449219 C 97.542969 61.050781 100.558594 62.148438 102.902344 63.058594 C 105.246094 63.96875 106.929688 64.699219 108.332031 65.65625 C 109.734375 66.613281 110.855469 67.796875 111.976562 68.972656 C 111.976562 68.972656 111.976562 68.972656 111.976562 68.976562 L 112.933594 70.125 L 113.363281 70.644531 C 113.375 70.660156 113.378906 70.675781 113.371094 70.691406 C 113.363281 70.707031 113.347656 70.71875 113.332031 70.722656 C 113.304688 70.726562 113.28125 70.707031 113.28125 70.679688 C 113.277344 70.65625 113.296875 70.632812 113.320312 70.628906 Z M 113.320312 70.628906 " fill-opacity="1" fill-rule="nonzero"/><g clip-path="url(#id4)"><path fill="#000000" d="M 39.703125 115.527344 L 39.707031 115.535156 L 39.707031 115.53125 C 39.320312 115.058594 38.933594 114.582031 38.0625 112.613281 C 37.195312 110.640625 35.84375 107.175781 34.488281 103.710938 L 34.53125 103.742188 L 33.972656 103.714844 C 33.953125 103.714844 33.933594 103.699219 33.929688 103.679688 L 33.925781 103.65625 C 33.78125 103.03125 33.632812 102.40625 33.46875 101.636719 C 33.304688 100.851562 33.117188 99.921875 32.863281 98.492188 C 32.613281 97.0625 32.292969 95.136719 32.125 93.554688 C 31.957031 91.96875 31.9375 90.722656 31.921875 89.480469 C 31.921875 89.480469 31.921875 89.476562 31.921875 89.476562 C 32.027344 86.640625 32.132812 83.796875 32.390625 82.054688 C 32.640625 80.367188 33.035156 79.703125 33.375 79.140625 C 33.386719 79.117188 33.398438 79.101562 33.410156 79.082031 C 33.53125 78.878906 33.640625 78.6875 33.753906 78.488281 C 33.875 78.285156 33.996094 78.078125 34.128906 77.851562 C 34.234375 77.675781 34.347656 77.488281 34.476562 77.285156 C 34.921875 76.574219 35.539062 75.667969 36.152344 74.761719 C 36.15625 74.761719 36.15625 74.757812 36.15625 74.757812 C 36.714844 74.019531 37.277344 73.273438 37.867188 72.675781 C 38.453125 72.074219 39.066406 71.621094 39.675781 71.171875 C 39.6875 71.160156 39.710938 71.160156 39.726562 71.167969 C 40.96875 71.875 42.207031 72.582031 43.464844 73.097656 C 44.722656 73.613281 45.996094 73.933594 47.226562 74.058594 C 48.457031 74.179688 49.636719 74.105469 50.828125 74.03125 C 50.851562 74.03125 50.875 74.050781 50.875 74.074219 C 50.878906 74.101562 50.859375 74.125 50.832031 74.125 C 50.554688 74.152344 50.28125 74.167969 48.5 73.304688 C 46.714844 72.441406 43.40625 70.6875 41.582031 69 C 39.75 67.304688 39.417969 65.679688 39.460938 63.703125 C 39.5 61.730469 39.917969 59.40625 40.503906 57.519531 C 41.089844 55.632812 41.851562 54.179688 43.238281 52.683594 C 44.339844 51.496094 45.835938 50.28125 47.492188 49.378906 C 47.925781 49.144531 48.371094 48.929688 48.820312 48.746094 C 51 47.847656 53.335938 47.605469 54.949219 47.585938 C 56.566406 47.566406 57.464844 47.773438 58.359375 47.980469 L 58.328125 47.984375 C 60.960938 46.800781 63.59375 45.617188 65.640625 44.921875 C 67.6875 44.226562 69.148438 44.015625 70.496094 43.917969 C 71.84375 43.820312 73.085938 43.832031 74.324219 43.84375 C 75.542969 43.851562 76.769531 43.859375 78.265625 44.121094 C 79.761719 44.382812 81.523438 44.902344 83.285156 45.417969 C 83.289062 45.417969 83.292969 45.421875 83.296875 45.425781 L 90.671875 50.324219 L 90.65625 50.316406 C 92.21875 50.699219 93.78125 51.082031 95.507812 51.757812 C 97.230469 52.433594 99.117188 53.40625 100.3125 54.484375 C 101.507812 55.558594 102.007812 56.738281 102.503906 57.90625 L 102.488281 57.886719 C 103.289062 58.539062 104.089844 59.1875 105.199219 60.152344 C 106.308594 61.121094 107.726562 62.402344 109.144531 63.683594 C 109.148438 63.683594 109.148438 63.683594 109.148438 63.6875 L 109.199219 63.742188 C 110.503906 65.203125 111.804688 66.664062 113.039062 68.121094 C 114.289062 69.59375 115.46875 71.070312 116.277344 72.65625 C 117.085938 74.242188 117.519531 75.941406 117.710938 77.785156 C 117.902344 79.628906 117.847656 81.617188 117.730469 83.269531 C 117.613281 84.917969 117.429688 86.226562 117.203125 87.320312 C 116.976562 88.414062 116.707031 89.289062 116.4375 90.160156 L 116.4375 90.152344 L 114.695312 103.671875 L 114.695312 103.65625 C 114.785156 104.042969 114.863281 104.421875 113.816406 106.222656 C 113.4375 106.878906 112.90625 107.722656 112.332031 108.636719 C 111.652344 109.714844 110.914062 110.894531 110.285156 111.976562 C 109.984375 112.496094 109.707031 112.992188 109.480469 113.441406 C 108.363281 115.632812 108.296875 116.789062 108.226562 117.949219 C 108.226562 117.972656 108.203125 117.992188 108.179688 117.992188 C 108.152344 117.992188 108.132812 117.972656 108.132812 117.945312 C 108.109375 115.640625 108.085938 113.335938 107.9375 110.882812 C 107.789062 108.429688 107.515625 105.832031 107.242188 103.230469 C 107.105469 101.890625 106.96875 100.554688 106.457031 97.84375 C 105.941406 95.128906 105.050781 91.039062 104.230469 87.632812 C 103.410156 84.226562 102.667969 81.511719 101.785156 79.808594 C 100.90625 78.105469 99.890625 77.410156 98.390625 76.863281 C 96.886719 76.3125 94.898438 75.910156 92.585938 75.675781 C 90.273438 75.441406 87.640625 75.375 85.007812 75.308594 L 85.027344 75.304688 C 84.113281 75.691406 83.195312 76.082031 80.257812 76.191406 C 77.324219 76.304688 72.371094 76.136719 67.613281 75.902344 C 65.574219 75.800781 63.566406 75.6875 61.726562 75.585938 C 60.164062 75.496094 58.71875 75.414062 57.46875 75.351562 C 56.757812 75.316406 56.113281 75.289062 55.542969 75.269531 C 52.792969 75.175781 51.859375 75.292969 50.503906 75.515625 C 49.652344 75.65625 48.640625 75.835938 47.617188 76.394531 C 47.015625 76.71875 46.40625 77.175781 45.824219 77.832031 C 44.253906 79.605469 42.871094 82.835938 41.910156 85.242188 C 40.949219 87.648438 40.417969 89.222656 40.382812 91.925781 C 40.359375 93.433594 40.496094 95.289062 40.628906 97.128906 C 40.738281 98.597656 40.84375 100.058594 40.867188 101.320312 C 40.925781 104.15625 40.574219 105.984375 40.273438 107.167969 C 39.972656 108.351562 39.71875 108.894531 39.46875 109.433594 L 39.472656 109.40625 C 39.585938 110.417969 39.703125 111.429688 39.757812 112.46875 C 39.816406 113.507812 39.816406 114.570312 39.816406 115.636719 C 39.816406 115.660156 39.792969 115.683594 39.769531 115.683594 C 39.742188 115.683594 39.71875 115.660156 39.71875 115.632812 C 39.722656 114.570312 39.722656 113.511719 39.664062 112.472656 C 39.605469 111.4375 39.492188 110.429688 39.378906 109.417969 C 39.378906 109.410156 39.378906 109.402344 39.382812 109.394531 C 39.632812 108.855469 39.882812 108.320312 40.179688 107.144531 C 40.480469 105.96875 40.832031 104.148438 40.773438 101.320312 C 40.75 100.0625 40.640625 98.605469 40.535156 97.136719 C 40.402344 95.296875 40.265625 93.433594 40.285156 91.925781 C 40.324219 89.203125 40.863281 87.617188 41.824219 85.207031 C 42.785156 82.804688 44.171875 79.558594 45.753906 77.769531 C 46.34375 77.105469 46.960938 76.640625 47.570312 76.308594 C 48.609375 75.746094 49.636719 75.5625 50.492188 75.421875 C 51.847656 75.199219 52.792969 75.078125 55.546875 75.175781 C 56.117188 75.191406 56.765625 75.222656 57.476562 75.257812 C 58.722656 75.320312 60.171875 75.402344 61.734375 75.488281 C 63.574219 75.59375 65.578125 75.707031 67.617188 75.808594 C 72.375 76.042969 77.324219 76.207031 80.253906 76.097656 C 83.179688 75.988281 84.085938 75.601562 84.992188 75.21875 C 84.996094 75.214844 85.003906 75.214844 85.011719 75.214844 C 87.644531 75.28125 90.28125 75.347656 92.59375 75.582031 C 94.910156 75.816406 96.910156 76.21875 98.425781 76.773438 C 99.941406 77.328125 100.976562 78.039062 101.871094 79.761719 C 102.757812 81.480469 103.503906 84.207031 104.324219 87.613281 C 105.140625 91.019531 106.035156 95.109375 106.550781 97.824219 C 107.0625 100.539062 107.199219 101.882812 107.335938 103.222656 C 107.609375 105.820312 107.882812 108.421875 108.03125 110.878906 C 108.179688 113.332031 108.203125 115.640625 108.226562 117.945312 L 108.132812 117.941406 C 108.203125 116.773438 108.269531 115.605469 109.394531 113.398438 C 109.625 112.945312 109.902344 112.449219 110.203125 111.929688 C 110.832031 110.847656 111.574219 109.664062 112.253906 108.585938 C 112.828125 107.671875 113.355469 106.828125 113.734375 106.175781 C 114.777344 104.378906 114.683594 104.027344 114.601562 103.675781 C 114.601562 103.671875 114.601562 103.667969 114.601562 103.660156 L 116.34375 90.140625 C 116.347656 90.136719 116.347656 90.136719 116.347656 90.132812 C 116.617188 89.257812 116.882812 88.386719 117.109375 87.300781 C 117.335938 86.214844 117.519531 84.90625 117.636719 83.261719 C 117.753906 81.613281 117.804688 79.628906 117.617188 77.792969 C 117.425781 75.957031 116.996094 74.273438 116.195312 72.699219 C 115.390625 71.121094 114.21875 69.65625 112.96875 68.183594 C 111.734375 66.726562 110.433594 65.265625 109.128906 63.804688 L 109.078125 63.75 L 109.082031 63.753906 C 107.664062 62.472656 106.246094 61.191406 105.136719 60.226562 C 104.03125 59.261719 103.230469 58.613281 102.429688 57.960938 C 102.421875 57.957031 102.417969 57.949219 102.414062 57.941406 C 101.921875 56.773438 101.429688 55.617188 100.25 54.554688 C 99.066406 53.488281 97.191406 52.519531 95.472656 51.847656 C 93.753906 51.171875 92.195312 50.789062 90.632812 50.410156 C 90.628906 50.410156 90.625 50.40625 90.621094 50.402344 L 83.246094 45.503906 L 83.257812 45.507812 C 81.496094 44.992188 79.738281 44.476562 78.25 44.214844 C 76.761719 43.953125 75.542969 43.945312 74.320312 43.9375 C 73.082031 43.925781 71.847656 43.914062 70.503906 44.011719 C 69.160156 44.109375 67.710938 44.316406 65.671875 45.011719 C 63.628906 45.707031 61 46.886719 58.367188 48.070312 C 58.359375 48.074219 58.347656 48.074219 58.335938 48.074219 C 57.445312 47.867188 56.558594 47.660156 54.953125 47.679688 C 53.34375 47.699219 51.019531 47.941406 48.859375 48.832031 C 48.410156 49.015625 47.96875 49.230469 47.535156 49.464844 C 45.890625 50.359375 44.402344 51.566406 43.308594 52.746094 C 41.929688 54.234375 41.179688 55.671875 40.59375 57.546875 C 40.011719 59.425781 39.597656 61.742188 39.554688 63.703125 C 39.511719 65.664062 39.839844 67.261719 41.644531 68.929688 C 43.457031 70.605469 46.757812 72.355469 48.539062 73.21875 C 50.324219 74.082031 50.578125 74.054688 50.824219 74.03125 L 50.832031 74.125 C 49.644531 74.199219 48.453125 74.273438 47.214844 74.152344 C 45.976562 74.027344 44.695312 73.703125 43.429688 73.183594 C 42.164062 72.667969 40.921875 71.957031 39.679688 71.25 L 39.730469 71.246094 C 39.121094 71.699219 38.515625 72.148438 37.933594 72.742188 C 37.351562 73.335938 36.792969 74.074219 36.230469 74.816406 L 36.230469 74.8125 C 35.617188 75.71875 35.003906 76.625 34.558594 77.332031 C 34.429688 77.535156 34.316406 77.722656 34.210938 77.902344 C 34.074219 78.125 33.957031 78.332031 33.835938 78.535156 C 33.722656 78.734375 33.609375 78.925781 33.492188 79.128906 C 33.476562 79.148438 33.46875 79.167969 33.457031 79.1875 C 33.121094 79.746094 32.730469 80.394531 32.484375 82.066406 C 32.226562 83.804688 32.121094 86.640625 32.015625 89.480469 L 32.015625 89.476562 C 32.035156 90.71875 32.050781 91.960938 32.21875 93.542969 C 32.386719 95.125 32.707031 97.046875 32.957031 98.476562 C 33.210938 99.902344 33.394531 100.835938 33.5625 101.617188 C 33.726562 102.386719 33.871094 103.011719 34.015625 103.632812 L 34.019531 103.65625 L 33.976562 103.621094 L 34.535156 103.644531 C 34.554688 103.648438 34.570312 103.660156 34.578125 103.675781 C 35.929688 107.140625 37.28125 110.605469 38.148438 112.574219 C 39.015625 114.539062 39.398438 115.003906 39.777344 115.472656 L 39.78125 115.472656 C 39.78125 115.476562 39.785156 115.480469 39.785156 115.480469 C 39.796875 115.503906 39.789062 115.53125 39.765625 115.546875 C 39.742188 115.558594 39.714844 115.550781 39.703125 115.527344 Z M 39.703125 115.527344 " fill-opacity="1" fill-rule="nonzero"/></g><g clip-path="url(#id5)"><path fill="#000000" d="M 84.835938 53.566406 C 85.746094 53.566406 86.660156 53.625 87.539062 53.734375 C 90.046875 54.050781 92.285156 54.804688 94.511719 55.566406 L 94.515625 55.566406 L 94.546875 55.574219 L 94.714844 55.605469 C 94.734375 55.609375 94.746094 55.621094 94.746094 55.636719 C 94.75 55.65625 94.742188 55.671875 94.726562 55.679688 C 94.722656 55.683594 94.714844 55.683594 94.710938 55.683594 C 94.707031 55.683594 94.707031 55.683594 94.703125 55.683594 C 94.695312 55.679688 94.6875 55.679688 94.683594 55.679688 L 94.675781 55.679688 C 94.667969 55.6875 94.65625 55.695312 94.648438 55.695312 C 94.640625 55.695312 94.636719 55.691406 94.632812 55.691406 L 94.617188 55.6875 C 94.582031 55.671875 94.535156 55.65625 94.496094 55.644531 C 94.496094 55.644531 94.496094 55.644531 94.492188 55.644531 C 92.511719 55.269531 90.527344 54.910156 88.4375 54.910156 C 87.90625 54.910156 87.375 54.933594 86.832031 54.984375 C 84.058594 55.246094 81.0625 56.253906 78.8125 57.332031 C 76.566406 58.414062 75.074219 59.570312 73.574219 60.726562 C 73.570312 60.734375 73.558594 60.734375 73.550781 60.734375 C 73.542969 60.734375 73.539062 60.734375 73.53125 60.730469 C 73.515625 60.71875 73.511719 60.703125 73.515625 60.6875 L 73.515625 60.683594 C 73.796875 59.558594 74.085938 58.429688 75.046875 57.257812 C 76.011719 56.089844 77.65625 54.886719 79.898438 54.214844 C 81.367188 53.777344 83.097656 53.566406 84.835938 53.566406 Z M 77.730469 47.578125 C 79.179688 47.578125 80.570312 47.734375 81.792969 48.019531 C 84.09375 48.554688 85.789062 49.546875 87.476562 50.53125 L 87.480469 50.53125 C 87.496094 50.542969 87.503906 50.5625 87.496094 50.582031 C 87.492188 50.585938 87.492188 50.585938 87.496094 50.589844 C 87.496094 50.601562 87.492188 50.613281 87.484375 50.621094 C 87.476562 50.628906 87.46875 50.632812 87.457031 50.632812 L 87.433594 50.632812 C 86.539062 50.652344 85.632812 50.671875 82.628906 50.765625 C 79.597656 50.859375 74.449219 51.03125 70.078125 53.242188 C 65.710938 55.457031 62.121094 59.710938 58.523438 63.972656 C 58.515625 63.984375 58.507812 63.988281 58.496094 63.988281 C 58.488281 63.988281 58.484375 63.984375 58.476562 63.984375 C 58.460938 63.972656 58.453125 63.957031 58.457031 63.9375 C 59.09375 61.757812 59.726562 59.574219 60.933594 57.410156 C 62.140625 55.25 63.921875 53.109375 66.144531 51.429688 C 68.363281 49.753906 71.023438 48.535156 73.808594 47.96875 C 75.113281 47.703125 76.445312 47.578125 77.730469 47.578125 Z M 90.675781 58.863281 C 92.984375 58.863281 95.347656 59.234375 97.082031 59.503906 L 97.085938 59.503906 L 97.105469 59.507812 L 97.109375 59.507812 L 97.1875 59.519531 L 97.261719 59.53125 C 99.898438 59.945312 101.046875 60.128906 102.550781 60.707031 C 104.082031 61.296875 105.980469 62.296875 107.570312 63.527344 C 109.160156 64.761719 110.441406 66.226562 111.34375 67.429688 C 112.246094 68.636719 112.769531 69.582031 113.292969 70.527344 L 113.296875 70.53125 C 113.300781 70.542969 113.300781 70.554688 113.292969 70.566406 C 113.292969 70.570312 113.292969 70.574219 113.292969 70.574219 C 113.296875 70.578125 113.296875 70.578125 113.300781 70.578125 L 113.296875 70.578125 L 113.355469 70.652344 C 113.367188 70.660156 113.367188 70.675781 113.363281 70.691406 C 113.359375 70.703125 113.34375 70.710938 113.332031 70.714844 C 113.328125 70.714844 113.328125 70.714844 113.328125 70.714844 C 113.316406 70.714844 113.304688 70.710938 113.296875 70.703125 L 113.296875 70.699219 L 112.867188 70.179688 L 111.914062 69.03125 C 110.792969 67.855469 109.679688 66.679688 108.285156 65.730469 C 106.890625 64.777344 105.214844 64.050781 102.871094 63.140625 C 100.527344 62.226562 97.515625 61.132812 95.285156 60.53125 C 93.894531 60.15625 92.808594 59.972656 91.75 59.972656 C 91.113281 59.972656 90.488281 60.039062 89.808594 60.167969 C 88 60.515625 85.828125 61.320312 84.070312 62.28125 C 82.308594 63.238281 80.964844 64.351562 79.613281 65.46875 C 79.605469 65.472656 79.597656 65.476562 79.589844 65.476562 C 79.582031 65.476562 79.570312 65.472656 79.5625 65.464844 C 79.550781 65.453125 79.546875 65.429688 79.558594 65.414062 L 79.570312 65.402344 C 81.59375 62.847656 83.625 60.277344 86.820312 59.335938 C 87.992188 58.988281 89.324219 58.863281 90.675781 58.863281 Z M 56.492188 49.585938 C 56.5 49.585938 56.503906 49.589844 56.507812 49.589844 C 56.523438 49.597656 56.535156 49.617188 56.53125 49.632812 C 56.527344 49.640625 56.523438 49.648438 56.519531 49.65625 L 56.515625 49.65625 C 56.515625 49.660156 56.515625 49.664062 56.515625 49.664062 C 56.515625 49.679688 56.507812 49.691406 56.496094 49.699219 C 56.488281 49.703125 56.480469 49.707031 56.472656 49.710938 C 56.472656 49.710938 56.472656 49.714844 56.46875 49.714844 C 54.507812 52.121094 52.554688 54.519531 51.46875 57.019531 C 50.371094 59.546875 50.148438 62.175781 50.308594 64.078125 C 50.472656 65.976562 51.015625 67.148438 51.738281 68.269531 C 52.460938 69.390625 53.359375 70.460938 54.257812 71.535156 C 54.269531 71.546875 54.269531 71.566406 54.261719 71.582031 C 54.253906 71.59375 54.242188 71.597656 54.226562 71.597656 C 54.226562 71.597656 54.222656 71.597656 54.222656 71.597656 C 54.222656 71.597656 54.21875 71.597656 54.21875 71.597656 C 53.609375 71.464844 52.996094 71.328125 52.214844 70.535156 C 51.4375 69.746094 50.488281 68.304688 49.683594 67.054688 C 48.875 65.804688 48.207031 64.734375 47.75 63.214844 C 47.292969 61.695312 47.046875 59.722656 47.832031 57.777344 C 48.613281 55.832031 50.417969 53.921875 52.023438 52.570312 C 53.617188 51.230469 55.019531 50.4375 56.417969 49.652344 L 56.421875 49.648438 L 56.460938 49.601562 C 56.46875 49.59375 56.480469 49.585938 56.492188 49.585938 Z M 73.136719 43.921875 C 72.285156 43.921875 71.417969 43.9375 70.503906 44.003906 C 69.160156 44.101562 67.707031 44.308594 65.667969 45.003906 C 63.625 45.699219 60.996094 46.878906 58.363281 48.0625 C 58.359375 48.0625 58.351562 48.066406 58.347656 48.066406 C 58.34375 48.066406 58.339844 48.066406 58.339844 48.0625 C 57.484375 47.867188 56.632812 47.671875 55.15625 47.671875 C 55.085938 47.671875 55.019531 47.671875 54.953125 47.671875 C 53.34375 47.691406 51.019531 47.933594 48.855469 48.824219 C 48.40625 49.007812 47.964844 49.222656 47.53125 49.457031 C 45.882812 50.351562 44.394531 51.5625 43.300781 52.742188 C 41.921875 54.230469 41.171875 55.667969 40.585938 57.546875 C 40.003906 59.425781 39.585938 61.742188 39.546875 63.703125 C 39.503906 65.664062 39.832031 67.265625 41.640625 68.9375 C 43.453125 70.613281 46.753906 72.363281 48.535156 73.226562 C 50.027344 73.949219 50.449219 74.046875 50.695312 74.046875 C 50.695312 74.046875 50.699219 74.046875 50.699219 74.046875 C 50.703125 74.046875 50.703125 74.046875 50.703125 74.046875 L 50.710938 74.046875 L 50.828125 74.039062 C 50.847656 74.039062 50.867188 74.054688 50.867188 74.074219 C 50.871094 74.097656 50.855469 74.117188 50.832031 74.117188 C 50.792969 74.121094 50.757812 74.125 50.714844 74.125 C 50.027344 74.167969 49.339844 74.207031 48.636719 74.207031 C 48.167969 74.207031 47.699219 74.191406 47.21875 74.140625 C 45.980469 74.019531 44.695312 73.695312 43.433594 73.175781 C 42.175781 72.664062 40.941406 71.960938 39.710938 71.257812 L 39.699219 71.257812 C 39.101562 71.703125 38.5 72.148438 37.925781 72.734375 C 37.34375 73.328125 36.785156 74.070312 36.222656 74.8125 C 35.609375 75.71875 34.996094 76.621094 34.550781 77.328125 C 34.421875 77.53125 34.308594 77.71875 34.203125 77.894531 C 34.070312 78.121094 33.949219 78.328125 33.832031 78.53125 C 33.714844 78.730469 33.605469 78.921875 33.484375 79.125 C 33.46875 79.148438 33.460938 79.160156 33.449219 79.183594 L 33.445312 79.183594 L 33.445312 79.1875 C 33.113281 79.746094 32.722656 80.394531 32.476562 82.066406 C 32.21875 83.804688 32.113281 86.636719 32.007812 89.476562 L 32.007812 89.484375 C 32.023438 90.726562 32.042969 91.964844 32.210938 93.542969 C 32.378906 95.125 32.695312 97.050781 32.949219 98.476562 C 33.203125 99.90625 33.386719 100.835938 33.554688 101.617188 C 33.71875 102.382812 33.859375 103.003906 34.003906 103.625 C 34.003906 103.625 34.007812 103.628906 34.011719 103.628906 L 34.015625 103.628906 L 34.535156 103.65625 C 34.550781 103.65625 34.5625 103.664062 34.570312 103.679688 C 35.921875 107.144531 37.273438 110.609375 38.140625 112.578125 C 38.699219 113.839844 39.054688 114.484375 39.34375 114.910156 C 39.34375 114.910156 39.347656 114.914062 39.347656 114.914062 C 39.351562 114.914062 39.351562 114.914062 39.351562 114.914062 C 39.355469 114.910156 39.355469 114.90625 39.355469 114.902344 C 39.460938 114.210938 39.570312 113.480469 39.683594 112.726562 L 39.679688 112.730469 L 39.683594 112.722656 C 39.679688 112.640625 39.675781 112.554688 39.671875 112.472656 C 39.617188 111.4375 39.5 110.429688 39.386719 109.417969 C 39.386719 109.410156 39.386719 109.402344 39.390625 109.394531 C 39.640625 108.859375 39.890625 108.324219 40.191406 107.148438 C 40.488281 105.96875 40.839844 104.152344 40.78125 101.320312 C 40.757812 100.0625 40.652344 98.605469 40.542969 97.136719 L 40.542969 97.132812 C 40.410156 95.292969 40.273438 93.433594 40.296875 91.925781 C 40.332031 89.207031 40.871094 87.621094 41.832031 85.210938 C 42.792969 82.804688 44.179688 79.5625 45.761719 77.773438 C 46.351562 77.113281 46.964844 76.648438 47.574219 76.316406 C 48.613281 75.753906 49.636719 75.570312 50.492188 75.429688 C 51.53125 75.257812 52.328125 75.148438 53.875 75.148438 C 54.351562 75.148438 54.898438 75.160156 55.546875 75.183594 C 56.117188 75.203125 56.765625 75.230469 57.476562 75.265625 C 58.722656 75.328125 60.167969 75.410156 61.730469 75.5 L 61.734375 75.5 C 63.574219 75.601562 65.578125 75.714844 67.617188 75.816406 C 71.328125 76 75.160156 76.140625 78.054688 76.140625 C 78.871094 76.140625 79.613281 76.128906 80.253906 76.105469 C 83.179688 75.996094 84.085938 75.609375 84.992188 75.226562 C 85 75.222656 85.003906 75.222656 85.007812 75.222656 C 85.007812 75.222656 85.011719 75.222656 85.011719 75.222656 L 85.054688 75.222656 C 87.671875 75.289062 90.292969 75.359375 92.59375 75.589844 C 94.910156 75.824219 96.90625 76.226562 98.421875 76.78125 C 99.9375 77.335938 100.972656 78.046875 101.863281 79.765625 C 102.75 81.484375 103.496094 84.210938 104.316406 87.613281 C 105.132812 91.019531 106.027344 95.109375 106.539062 97.824219 C 107.054688 100.542969 107.191406 101.882812 107.324219 103.222656 L 107.332031 103.277344 C 107.605469 105.859375 107.875 108.441406 108.023438 110.878906 C 108.152344 112.96875 108.1875 114.949219 108.207031 116.914062 C 108.207031 116.917969 108.210938 116.921875 108.214844 116.921875 C 108.214844 116.921875 108.214844 116.921875 108.21875 116.921875 C 108.222656 116.921875 108.226562 116.917969 108.226562 116.914062 C 108.335938 116.019531 108.601562 114.976562 109.402344 113.402344 C 109.632812 112.949219 109.910156 112.453125 110.210938 111.933594 C 110.839844 110.851562 111.582031 109.671875 112.261719 108.589844 C 112.832031 107.675781 113.363281 106.832031 113.742188 106.179688 C 114.777344 104.398438 114.695312 104.03125 114.613281 103.683594 L 114.613281 103.675781 C 114.609375 103.671875 114.609375 103.664062 114.609375 103.660156 L 116.355469 90.140625 C 116.355469 90.140625 116.355469 90.136719 116.355469 90.136719 C 116.625 89.261719 116.890625 88.390625 117.117188 87.300781 C 117.34375 86.214844 117.527344 84.910156 117.644531 83.261719 C 117.761719 81.613281 117.816406 79.628906 117.625 77.792969 C 117.433594 75.957031 117.003906 74.269531 116.203125 72.695312 C 115.398438 71.117188 114.222656 69.652344 112.972656 68.175781 C 111.742188 66.722656 110.4375 65.261719 109.136719 63.800781 L 109.089844 63.746094 L 109.046875 63.710938 C 107.644531 62.441406 106.242188 61.175781 105.144531 60.21875 C 104.035156 59.253906 103.238281 58.605469 102.4375 57.957031 L 102.433594 57.957031 L 102.433594 57.953125 C 102.429688 57.949219 102.425781 57.945312 102.421875 57.941406 L 102.417969 57.929688 C 101.925781 56.765625 101.433594 55.609375 100.253906 54.546875 C 99.074219 53.480469 97.195312 52.511719 95.476562 51.835938 C 93.757812 51.164062 92.199219 50.78125 90.636719 50.402344 C 90.632812 50.398438 90.628906 50.398438 90.625 50.394531 L 83.261719 45.503906 C 83.257812 45.5 83.257812 45.5 83.253906 45.5 C 81.496094 44.984375 79.738281 44.46875 78.25 44.207031 C 76.761719 43.945312 75.542969 43.9375 74.320312 43.929688 C 73.925781 43.925781 73.535156 43.921875 73.136719 43.921875 Z M 73.136719 43.921875 " fill-opacity="1" fill-rule="nonzero"/></g><g clip-path="url(#id6)"><path fill="#000000" d="M 95.769531 101.777344 C 90.082031 101.816406 84.601562 103.597656 79.023438 104.308594 C 76.691406 104.605469 74.292969 104.679688 71.957031 104.402344 C 68.855469 104.035156 65.851562 103.058594 62.753906 102.621094 C 59.980469 102.230469 57.175781 101.820312 54.386719 101.804688 C 49.515625 101.777344 44.804688 103.304688 40.027344 104.128906 C 40.027344 105.53125 39.742188 107.328125 40.457031 108.3125 C 41.195312 109.328125 42.4375 110.253906 42.757812 111.628906 C 43.523438 114.894531 44.609375 118.089844 45.996094 121.15625 C 46.671875 122.644531 47.941406 123.683594 49.363281 124.398438 C 52.785156 126.121094 56.835938 126.375 60.589844 125.835938 C 65.9375 125.0625 68.835938 121.042969 71.050781 116.449219 C 71.878906 114.582031 71.972656 112.425781 73.0625 110.722656 C 73.710938 109.707031 75.214844 110.132812 76.289062 110.128906 C 77.363281 110.125 78.277344 111.917969 78.609375 113.113281 C 79.789062 117.332031 81.761719 121.8125 85.671875 124.023438 C 91.515625 127.328125 100.722656 126.710938 104.515625 120.753906 C 106 118.421875 106.410156 115.59375 107.152344 112.953125 C 107.605469 111.34375 108.011719 109.429688 109.625 108.546875 C 110.273438 108.191406 109.816406 106.765625 109.914062 105.941406 C 110.019531 105.039062 110.21875 104.242188 108.941406 104.066406 C 106.710938 103.757812 104.542969 102.816406 102.261719 102.5 C 100.097656 102.199219 97.976562 101.761719 95.769531 101.777344 Z M 58.175781 103.277344 C 59.792969 103.265625 61.398438 103.386719 62.96875 103.71875 C 72.316406 105.699219 72.503906 109.558594 68.65625 117.535156 C 65.519531 124.039062 59.023438 125.667969 52.480469 124.109375 C 49.464844 123.390625 47.398438 121.28125 46.425781 118.390625 C 45.398438 115.339844 44.625 112.097656 44.800781 108.894531 C 45.035156 104.601562 49.878906 103.996094 53.351562 103.605469 C 54.941406 103.425781 56.5625 103.289062 58.175781 103.277344 Z M 92.308594 103.277344 C 93.921875 103.289062 95.542969 103.425781 97.132812 103.605469 C 100.605469 103.996094 105.449219 104.601562 105.683594 108.894531 C 105.863281 112.097656 105.085938 115.339844 104.058594 118.390625 C 103.085938 121.28125 101.023438 123.390625 98.003906 124.109375 C 91.460938 125.667969 84.964844 124.039062 81.828125 117.535156 C 77.980469 109.558594 78.167969 105.699219 87.515625 103.71875 C 89.085938 103.386719 90.691406 103.265625 92.308594 103.277344 Z M 92.308594 103.277344 " fill-opacity="1" fill-rule="nonzero"/></g><g clip-path="url(#id7)"><path stroke-linecap="butt" transform="matrix(0.194327, 0, 0, 0.194733, 28.884692, 74.41938)" fill="none" stroke-linejoin="miter" d="M 344.187731 140.48983 C 314.919996 140.690425 286.717639 149.837579 258.012745 153.488417 C 246.01217 155.012942 233.66987 155.394074 221.649193 153.969846 C 205.688629 152.084248 190.230602 147.069361 174.290139 144.822692 C 160.018098 142.816737 145.585245 140.710485 131.232798 140.630246 C 106.16627 140.48983 81.923902 148.333113 57.339809 152.565678 C 57.339809 159.767055 55.872402 168.994448 59.55097 174.049454 C 63.350147 179.264936 69.742414 184.019049 71.390734 191.08001 C 75.330621 207.849792 80.918829 224.258503 88.054849 240.005248 C 91.532403 247.647936 98.065379 252.983776 105.382313 256.654673 C 122.991197 265.500934 143.836418 266.804804 163.153927 264.036587 C 190.672834 260.064796 205.588122 239.423521 216.985653 215.833492 C 221.247164 206.245028 221.729599 195.172158 227.337908 186.426195 C 230.674751 181.210712 238.413816 183.397203 243.941719 183.377144 C 249.469622 183.357084 254.173365 192.564417 255.88199 198.702638 C 261.952633 220.36695 272.103873 243.375252 292.225441 254.728956 C 322.297234 271.699334 369.67639 268.529925 389.194913 237.939114 C 396.83347 225.963564 398.944124 211.440451 402.763403 197.880197 C 405.095173 189.615663 407.185725 179.786484 415.487631 175.253027 C 418.824474 173.427608 416.472603 166.105873 416.975139 161.873308 C 417.517879 157.239552 418.543054 153.147404 411.969874 152.244725 C 400.491937 150.660021 389.335624 145.825669 377.596367 144.200846 C 366.460155 142.656261 355.545059 140.409591 344.187731 140.48983 Z M 150.731221 148.192696 C 159.053228 148.132517 167.31493 148.754363 175.39572 150.459425 C 223.498528 160.629616 224.463398 180.44845 204.663454 221.410047 C 188.521977 254.809194 155.093239 263.174026 121.423283 255.170266 C 105.904951 251.479309 95.271276 240.647153 90.26601 225.803088 C 84.979325 210.136581 80.999235 193.487156 81.903801 177.038326 C 83.109889 154.992883 108.035707 151.883653 125.90591 149.877698 C 134.087207 148.954959 142.429315 148.252875 150.731221 148.192696 Z M 326.377832 148.192696 C 334.679737 148.252875 343.021846 148.954959 351.203142 149.877698 C 369.073346 151.883653 393.999164 154.992883 395.205252 177.038326 C 396.129919 193.487156 392.129727 210.136581 386.843042 225.803088 C 381.837777 240.647153 371.224203 251.479309 355.685769 255.170266 C 322.015813 263.174026 288.587075 254.809194 272.445598 221.410047 C 252.645654 180.44845 253.610524 160.629616 301.713333 150.459425 C 309.794122 148.754363 318.055825 148.132517 326.377832 148.192696 Z M 326.377832 148.192696 " stroke="#000000" stroke-width="1" stroke-opacity="1" stroke-miterlimit="4"/></g><g mask="url(#id8)"><g transform="matrix(1, 0, 0, 1, 44, 102)"><g clip-path="url(#id11)"><g clip-path="url(#id9)"><path fill="#000000" d="M 9.347656 1.609375 C 12.53125 1.25 15.828125 1.054688 18.964844 1.71875 C 28.3125 3.699219 28.5 7.5625 24.652344 15.539062 C 21.519531 22.039062 15.027344 23.667969 8.480469 22.113281 C 5.464844 21.394531 3.398438 19.273438 2.425781 16.386719 C 1.398438 13.335938 0.617188 10.097656 0.792969 6.890625 C 1.03125 2.597656 5.878906 2 9.347656 1.609375 Z M 9.347656 1.609375 " fill-opacity="1" fill-rule="nonzero"/></g><g clip-path="url(#id10)"><path stroke-linecap="butt" transform="matrix(0.194327, 0, 0, 0.194733, -15.115308, -27.580621)" fill="none" stroke-linejoin="miter" d="M 125.885808 149.897759 C 142.268503 148.05228 159.234141 147.049303 175.375618 150.459426 C 223.478427 160.629617 224.443297 180.46851 204.643353 221.430108 C 188.521977 254.809196 155.11334 263.174027 121.423283 255.190327 C 105.904951 251.49937 95.271276 240.607036 90.26601 225.78303 C 84.979325 210.116522 80.959032 193.487157 81.863598 177.018268 C 83.089787 154.972825 108.035707 151.903714 125.885808 149.897759 Z M 125.885808 149.897759 " stroke="#000000" stroke-width="1" stroke-opacity="1" stroke-miterlimit="4"/></g></g></g></g><g mask="url(#id12)"><g transform="matrix(1, 0, 0, 1, 78, 102)"><g clip-path="url(#id14)"><path fill="#000000" d="M 19.132812 1.609375 C 15.949219 1.25 12.652344 1.054688 9.515625 1.71875 C 0.167969 3.699219 -0.0195312 7.5625 3.828125 15.539062 C 6.964844 22.039062 13.453125 23.667969 20 22.113281 C 23.015625 21.394531 25.082031 19.273438 26.054688 16.386719 C 27.082031 13.335938 27.863281 10.097656 27.6875 6.890625 C 27.449219 2.597656 22.601562 2 19.132812 1.609375 Z M 19.132812 1.609375 " fill-opacity="1" fill-rule="nonzero"/><g clip-path="url(#id13)"><path stroke-linecap="butt" transform="matrix(0.194327, 0, 0, 0.194733, -49.115308, -27.580621)" fill="none" stroke-linejoin="miter" d="M 351.203142 149.897759 C 334.820447 148.05228 317.85481 147.049303 301.713333 150.459426 C 253.610524 160.629617 252.645654 180.46851 272.445598 221.430108 C 288.587075 254.809196 321.975611 263.174027 355.665668 255.190327 C 371.184 251.49937 381.817675 240.607036 386.82294 225.78303 C 392.109626 210.116522 396.129919 193.487157 395.225353 177.018268 C 393.999164 154.972825 369.053244 151.903714 351.203142 149.897759 Z M 351.203142 149.897759 " stroke="#000000" stroke-width="1" stroke-opacity="1" stroke-miterlimit="4"/></g></g></g></g><g clip-path="url(#id15)"><path fill="#000000" d="M 22.277344 128.441406 C 22.425781 127.65625 22.277344 127.839844 22.070312 128.800781 C 22.210938 128.523438 22.277344 128.402344 22.277344 128.441406 Z M 22.277344 128.441406 " fill-opacity="1" fill-rule="nonzero"/></g><g clip-path="url(#id16)"><path fill="#000000" d="M 32.679688 186.359375 C 16.058594 162.652344 20.800781 134.058594 22.070312 128.800781 C 21.273438 130.445312 18.238281 137.503906 16.242188 148.976562 C 17.375 151.753906 18.644531 154.464844 20.058594 157.109375 C 20.214844 158.191406 20.660156 161.082031 20.910156 162.144531 C 18.875 158.480469 17.101562 154.695312 15.59375 150.789062 C 15.566406 150.964844 15.027344 153.820312 14.730469 156.167969 C 16.878906 160.007812 19.328125 163.648438 22.082031 167.085938 C 22.082031 167.242188 22.636719 169.035156 22.675781 169.164062 C 19.785156 165.753906 17.203125 162.121094 14.933594 158.273438 C 14.8125 160.175781 14.730469 161.960938 14.730469 163.984375 C 17.625 167.671875 20.84375 171.0625 24.382812 174.144531 C 24.484375 174.433594 24.558594 174.597656 24.855469 175.355469 C 21.441406 172.859375 18.265625 170.085938 15.332031 167.039062 C 15.398438 168.722656 15.5 170.054688 15.574219 171.125 C 19.152344 174.847656 23.101562 178.136719 27.417969 180.984375 C 27.789062 181.710938 27.601562 181.371094 28.261719 182.582031 C 24.144531 180.171875 20.328125 177.359375 16.808594 174.144531 C 17.234375 176.398438 17.597656 177.839844 17.8125 178.664062 C 21.800781 181.84375 26.105469 184.527344 30.722656 186.710938 C 30.777344 186.804688 31.648438 188.113281 31.722656 188.207031 C 27.25 186.300781 23.042969 183.925781 19.101562 181.085938 C 19.242188 181.703125 20.242188 185.09375 20.511719 185.832031 C 25.222656 189.023438 30.273438 191.535156 35.667969 193.363281 C 35.882812 193.632812 36.019531 193.777344 36.597656 194.417969 C 31.476562 192.832031 26.640625 190.632812 22.089844 187.808594 C 22.46875 188.734375 23.074219 190.183594 24.1875 192.429688 C 29.421875 195.300781 34.949219 197.40625 40.773438 198.75 L 41.878906 199.746094 C 36.074219 198.835938 30.503906 197.148438 25.171875 194.695312 C 26.582031 197.1875 27.316406 198.277344 28.152344 199.554688 C 34.140625 201.816406 40.328125 203.195312 46.714844 203.683594 L 47.714844 204.421875 C 41.867188 204.324219 36.128906 203.46875 30.507812 201.863281 C 30.636719 202.058594 32.363281 204.632812 33.683594 206.234375 C 40.0625 207.707031 46.527344 208.285156 53.070312 207.960938 C 54.777344 208.976562 54.332031 208.71875 55.046875 209.105469 C 48.664062 209.476562 42.339844 209.019531 36.078125 207.738281 C 37.050781 208.941406 38.183594 210.371094 40.335938 212.652344 C 48.113281 213.765625 55.910156 213.96875 63.734375 213.265625 C 69.589844 215.714844 75.617188 217.632812 81.816406 219.019531 C 83.105469 218.226562 84.515625 217.328125 85.722656 216.523438 C 64.441406 212.597656 45.023438 204.007812 32.679688 186.359375 Z M 32.679688 186.359375 " fill-opacity="1" fill-rule="nonzero"/></g><g clip-path="url(#id17)"><path fill="#000000" d="M 127.960938 128.441406 C 127.8125 127.65625 127.960938 127.839844 128.15625 128.800781 C 128.035156 128.523438 127.960938 128.402344 127.960938 128.441406 Z M 127.960938 128.441406 " fill-opacity="1" fill-rule="nonzero"/></g><g clip-path="url(#id18)"><path fill="#000000" d="M 117.558594 186.359375 C 134.179688 162.652344 129.445312 134.058594 128.164062 128.800781 C 128.972656 130.445312 132.007812 137.503906 134.003906 148.976562 C 132.269531 153.109375 130.71875 156.175781 130.1875 157.109375 C 130.03125 158.191406 129.585938 161.082031 129.328125 162.144531 C 131.371094 158.484375 133.140625 154.699219 134.644531 150.789062 C 134.644531 150.964844 135.21875 153.792969 135.515625 156.167969 C 133.367188 160.007812 130.917969 163.648438 128.164062 167.085938 C 128.164062 167.242188 127.609375 169.035156 127.570312 169.164062 C 130.457031 165.75 133.039062 162.117188 135.3125 158.273438 C 135.433594 160.175781 135.507812 161.96875 135.5 163.984375 C 132.609375 167.675781 129.398438 171.0625 125.863281 174.144531 C 125.753906 174.433594 125.6875 174.597656 125.382812 175.355469 C 128.800781 172.863281 131.976562 170.089844 134.902344 167.039062 C 134.847656 168.722656 134.746094 170.054688 134.664062 171.125 C 131.085938 174.847656 127.140625 178.132812 122.828125 180.984375 C 122.457031 181.710938 122.632812 181.371094 121.984375 182.582031 C 126.097656 180.171875 129.914062 177.359375 133.429688 174.144531 C 133 176.398438 132.640625 177.839844 132.433594 178.664062 C 128.441406 181.835938 124.140625 184.511719 119.523438 186.691406 L 118.523438 188.1875 C 122.996094 186.28125 127.203125 183.90625 131.144531 181.066406 C 131.007812 181.683594 130.003906 185.074219 129.734375 185.816406 C 125.023438 189.007812 119.964844 191.519531 114.570312 193.34375 C 114.363281 193.613281 114.214844 193.761719 113.640625 194.398438 C 118.757812 192.8125 123.589844 190.609375 128.136719 187.792969 C 127.75 188.714844 127.15625 190.167969 126.039062 192.410156 C 120.800781 195.28125 115.269531 197.390625 109.445312 198.730469 L 108.351562 199.730469 C 114.15625 198.816406 119.722656 197.128906 125.058594 194.675781 C 123.65625 197.167969 122.921875 198.257812 122.078125 199.535156 C 116.105469 201.8125 109.929688 203.203125 103.550781 203.710938 L 102.558594 204.449219 C 108.390625 204.335938 114.109375 203.476562 119.710938 201.863281 C 119.582031 202.058594 117.855469 204.632812 116.527344 206.234375 C 110.148438 207.699219 103.6875 208.265625 97.148438 207.933594 C 95.441406 208.949219 95.875 208.691406 95.171875 209.078125 C 101.578125 209.464844 107.925781 209.019531 114.214844 207.738281 C 113.230469 208.941406 112.101562 210.371094 109.957031 212.652344 C 102.179688 213.765625 94.382812 213.96875 86.558594 213.265625 C 80.703125 215.710938 74.675781 217.628906 68.476562 219.019531 C 67.179688 218.226562 65.777344 217.328125 64.570312 216.523438 C 85.796875 212.597656 105.222656 204.007812 117.558594 186.359375 Z M 117.558594 186.359375 " fill-opacity="1" fill-rule="nonzero"/></g><g fill="#000000" fill-opacity="1"><g transform="translate(26.16038, 69.881488)"><g><path d="M 0.210938 -1.789062 C 0.402344 -3.261719 0.703125 -4.933594 0.902344 -6.621094 C 1.339844 -10.324219 0.25 -12.425781 -2.101562 -12.703125 C -4.152344 -12.945312 -5.355469 -11.359375 -5.769531 -8.882812 C -5.75 -11.03125 -6.589844 -12.214844 -8.308594 -12.417969 C -9.730469 -12.585938 -11.253906 -11.429688 -11.652344 -8.023438 C -11.78125 -6.953125 -11.941406 -4.535156 -12.078125 -3.21875 C -12.113281 -2.917969 -12.207031 -2.414062 -12.238281 -2.132812 C -12.242188 -2.097656 -11.726562 -1.824219 -11.5 -2.382812 C -11.3125 -2.894531 -11.144531 -3.269531 -9.742188 -3.101562 L -2.089844 -2.203125 C -0.6875 -2.039062 -0.609375 -1.636719 -0.546875 -1.097656 C -0.457031 -0.5 0.113281 -0.644531 0.117188 -0.679688 C 0.148438 -0.960938 0.171875 -1.472656 0.210938 -1.789062 Z M -6.292969 -6.398438 C -6.203125 -5.960938 -5.613281 -6.140625 -5.605469 -6.191406 L -5.519531 -6.789062 C -5.273438 -8.734375 -4.308594 -9.351562 -2.394531 -9.125 C -0.429688 -8.894531 0.277344 -7.636719 0.117188 -6.285156 L 0.046875 -5.6875 C -0.0195312 -5.144531 -0.1875 -5.058594 -0.765625 -5.125 L -10.367188 -6.253906 C -10.894531 -6.316406 -11.082031 -6.390625 -11.027344 -6.847656 L -10.925781 -7.546875 C -10.804688 -8.421875 -10.015625 -9.257812 -8.292969 -9.054688 C -6.765625 -8.875 -6.351562 -8.183594 -6.28125 -6.949219 Z M -6.292969 -6.398438 "/></g></g></g><g fill="#000000" fill-opacity="1"><g transform="translate(27.40344, 58.080797)"><g><path d="M 3.933594 -12.230469 C 3.695312 -11.960938 3.46875 -11.707031 2.074219 -11.671875 L -7.550781 -11.417969 C -8.789062 -11.394531 -8.960938 -11.234375 -9.457031 -9.929688 L -10.128906 -8.164062 C -10.167969 -8.0625 -9.800781 -7.734375 -9.515625 -8.136719 C -9.367188 -8.328125 -9.304688 -8.394531 -8.972656 -8.421875 L -8.878906 -8.421875 C -8.570312 -8.4375 -8.058594 -8.339844 -7.769531 -8.058594 L -1.503906 -2.253906 C -0.488281 -1.300781 -0.484375 -0.960938 -0.503906 -0.570312 C -0.496094 -0.132812 0.0859375 -0.0820312 0.101562 -0.113281 C 0.152344 -0.300781 0.246094 -0.644531 0.320312 -0.84375 L 0.714844 -1.882812 C 0.859375 -2.261719 1.144531 -2.910156 1.285156 -3.234375 C 1.304688 -3.285156 0.878906 -3.75 0.445312 -3.0625 C 0.0859375 -2.464844 -0.207031 -2.042969 -1.238281 -3.003906 L -1.757812 -3.484375 L -1.722656 -3.472656 C -1.839844 -3.613281 -1.84375 -3.707031 -1.773438 -3.886719 C -1.175781 -5.457031 -0.695312 -6.769531 -0.0898438 -8.316406 C -0.0351562 -8.464844 0.0117188 -8.578125 0.164062 -8.632812 L 0.925781 -8.648438 C 2.324219 -8.699219 2.289062 -8.261719 2.179688 -7.621094 C 2.078125 -6.90625 2.695312 -6.933594 2.710938 -6.984375 C 2.808594 -7.289062 2.996094 -7.878906 3.132812 -8.242188 L 4.378906 -11.511719 C 4.445312 -11.695312 4.605469 -12.011719 4.683594 -12.171875 C 4.691406 -12.1875 4.21875 -12.539062 3.933594 -12.230469 Z M -0.90625 -8.359375 C -1.40625 -6.945312 -1.828125 -5.835938 -2.375 -4.4375 C -2.433594 -4.289062 -2.605469 -4.28125 -2.730469 -4.402344 L -2.738281 -4.386719 L -7.101562 -8.46875 L -1.058594 -8.605469 C -0.953125 -8.585938 -0.859375 -8.476562 -0.90625 -8.359375 Z M -0.90625 -8.359375 "/></g></g></g><g fill="#000000" fill-opacity="1"><g transform="translate(31.568941, 46.703893)"><g><path d="M 1.625 -10.945312 C 1.339844 -11.035156 1.1875 -11.035156 1.015625 -10.789062 C 0.675781 -10.335938 0.355469 -9.914062 0.03125 -9.515625 L 0.015625 -9.613281 C 1.496094 -11.960938 1.460938 -13.933594 -0.269531 -15.15625 C -2.207031 -16.523438 -4.207031 -15.707031 -6.359375 -12.660156 C -7.335938 -11.273438 -8.226562 -9.828125 -9.066406 -8.605469 C -9.25 -8.34375 -9.574219 -7.945312 -9.738281 -7.714844 C -9.757812 -7.6875 -9.433594 -7.195312 -8.96875 -7.582031 C -8.5625 -7.945312 -8.234375 -8.191406 -7.082031 -7.375 L -0.785156 -2.933594 C 0.371094 -2.117188 0.246094 -1.730469 0.0429688 -1.222656 C -0.164062 -0.65625 0.421875 -0.503906 0.449219 -0.546875 C 0.589844 -0.773438 0.855469 -1.210938 1.039062 -1.472656 L 2.976562 -4.214844 C 3.148438 -4.460938 3.484375 -4.875 3.648438 -5.082031 C 3.671875 -5.109375 3.332031 -5.609375 2.863281 -5.222656 C 2.457031 -4.863281 2.132812 -4.617188 0.976562 -5.429688 L -6.171875 -10.472656 C -6.601562 -10.78125 -6.636719 -10.976562 -6.371094 -11.351562 L -6.027344 -11.84375 C -5.144531 -13.058594 -3.8125 -13.417969 -2.179688 -12.265625 C -0.738281 -11.246094 -0.414062 -10.175781 -1.296875 -8.613281 L -1.617188 -8.128906 C -1.753906 -7.875 -1.601562 -7.726562 -1.453125 -7.75 L -1.136719 -8.046875 C 2.574219 -7.417969 6.175781 -8.015625 7.9375 -9.777344 C 8.371094 -10.335938 8.261719 -10.695312 8.070312 -10.914062 C 7.0625 -10.589844 5.054688 -10.015625 1.625 -10.945312 Z M 1.625 -10.945312 "/></g></g></g><g fill="#000000" fill-opacity="1"><g transform="translate(38.616324, 36.545504)"><g><path d="M 1.371094 -1.171875 C 2.507812 -2.125 3.867188 -3.144531 5.15625 -4.25 C 7.988281 -6.671875 8.617188 -8.953125 7.078125 -10.753906 C 5.734375 -12.324219 3.777344 -11.976562 1.789062 -10.4375 C 3.265625 -12.003906 3.453125 -13.441406 2.328125 -14.757812 C 1.394531 -15.847656 -0.507812 -16.03125 -3.113281 -13.804688 C -3.929688 -13.101562 -5.691406 -11.433594 -6.6875 -10.558594 C -6.914062 -10.363281 -7.328125 -10.058594 -7.542969 -9.875 C -7.566406 -9.851562 -7.375 -9.296875 -6.828125 -9.554688 C -6.34375 -9.804688 -5.96875 -9.964844 -5.046875 -8.890625 L -0.0390625 -3.035156 C 0.878906 -1.960938 0.664062 -1.613281 0.34375 -1.175781 C 0.00390625 -0.675781 0.519531 -0.398438 0.546875 -0.421875 C 0.761719 -0.605469 1.128906 -0.964844 1.371094 -1.171875 Z M -0.28125 -8.96875 C -0.511719 -8.585938 0.046875 -8.320312 0.0859375 -8.351562 L 0.554688 -8.730469 C 2.054688 -9.992188 3.179688 -9.792969 4.433594 -8.328125 C 5.71875 -6.824219 5.386719 -5.421875 4.351562 -4.535156 L 3.894531 -4.144531 C 3.476562 -3.789062 3.292969 -3.84375 2.914062 -4.285156 L -3.367188 -11.628906 C -3.714844 -12.03125 -3.800781 -12.214844 -3.449219 -12.511719 L -2.902344 -12.960938 C -2.21875 -13.519531 -1.074219 -13.59375 0.0546875 -12.277344 C 1.050781 -11.109375 0.890625 -10.320312 0.101562 -9.367188 Z M -0.28125 -8.96875 "/></g></g></g><g fill="#000000" fill-opacity="1"><g transform="translate(47.628216, 28.767467)"><g><path d="M 6.460938 -3.320312 C 8.410156 -4.320312 9.152344 -4.425781 9.496094 -4.601562 C 9.742188 -4.707031 9.832031 -4.953125 9.648438 -5.273438 C 9.027344 -6.328125 8.523438 -7.5 8.027344 -8.972656 C 8.015625 -9.027344 6.914062 -8.660156 7.121094 -7.871094 C 7.726562 -5.996094 7.761719 -5.5 7.539062 -5.085938 C 7.273438 -4.632812 6.609375 -4.230469 4.832031 -3.316406 C 4.234375 -3.011719 4.09375 -2.9375 3.777344 -3.550781 L 1.863281 -7.277344 C 1.765625 -7.464844 1.683594 -7.78125 1.96875 -7.925781 C 2.140625 -8.015625 2.660156 -8.28125 3.117188 -8.476562 C 3.707031 -8.71875 3.824219 -8.640625 4.695312 -7.71875 C 5.007812 -7.382812 5.550781 -7.796875 5.550781 -7.796875 C 4.859375 -8.753906 3.964844 -10.261719 3.574219 -11.453125 C 3.574219 -11.453125 2.863281 -11.363281 2.996094 -10.796875 C 3.269531 -9.6875 3.246094 -9.535156 2.71875 -9.207031 C 2.265625 -8.933594 1.753906 -8.648438 1.628906 -8.585938 C 1.34375 -8.441406 1.136719 -8.691406 1.039062 -8.878906 L -0.589844 -12.054688 C -0.761719 -12.382812 -0.757812 -12.683594 -0.378906 -12.878906 C 1.492188 -13.839844 2.183594 -14.15625 2.683594 -14.035156 C 3.148438 -13.9375 3.621094 -13.40625 4.546875 -12.109375 C 5.027344 -11.484375 5.90625 -12.09375 5.90625 -12.09375 C 4.964844 -13.339844 4.28125 -14.480469 3.820312 -15.613281 C 3.671875 -15.933594 3.476562 -15.972656 3.253906 -15.859375 C 2.855469 -15.671875 2.269531 -15.074219 0.726562 -14.28125 L -4.050781 -11.824219 C -4.332031 -11.679688 -4.804688 -11.476562 -5.050781 -11.371094 C -5.097656 -11.347656 -5.027344 -10.75 -4.433594 -10.875 C -3.90625 -11.003906 -3.503906 -11.074219 -2.859375 -9.816406 L 0.664062 -2.964844 C 1.308594 -1.707031 1.019531 -1.417969 0.605469 -1.066406 C 0.160156 -0.65625 0.605469 -0.25 0.652344 -0.277344 C 0.878906 -0.414062 1.320312 -0.679688 1.601562 -0.824219 Z M 6.460938 -3.320312 "/></g></g></g><g fill="#000000" fill-opacity="1"><g transform="translate(57.112794, 23.650365)"><g><path d="M 8.433594 -7.160156 C 8.28125 -7.414062 8.167969 -7.515625 7.875 -7.445312 C 7.320312 -7.328125 6.800781 -7.222656 6.296875 -7.136719 L 6.347656 -7.222656 C 9.011719 -8.007812 10.285156 -9.515625 9.785156 -11.578125 C 9.230469 -13.878906 7.1875 -14.585938 3.5625 -13.710938 C 1.914062 -13.3125 0.289062 -12.8125 -1.148438 -12.449219 C -1.457031 -12.371094 -1.964844 -12.289062 -2.238281 -12.222656 C -2.273438 -12.210938 -2.351562 -11.628906 -1.746094 -11.613281 C -1.203125 -11.617188 -0.796875 -11.585938 -0.464844 -10.214844 L 1.34375 -2.722656 C 1.675781 -1.347656 1.324219 -1.136719 0.839844 -0.894531 C 0.308594 -0.601562 0.648438 -0.101562 0.699219 -0.113281 C 0.953125 -0.195312 1.441406 -0.347656 1.753906 -0.421875 L 5.015625 -1.210938 C 5.308594 -1.28125 5.832031 -1.371094 6.09375 -1.414062 C 6.128906 -1.425781 6.203125 -2.023438 5.597656 -2.042969 C 5.054688 -2.039062 4.644531 -2.066406 4.3125 -3.441406 L 2.261719 -11.945312 C 2.136719 -12.460938 2.242188 -12.628906 2.6875 -12.738281 L 3.273438 -12.878906 C 4.738281 -13.214844 5.976562 -12.601562 6.445312 -10.660156 C 6.859375 -8.945312 6.394531 -7.921875 4.703125 -7.332031 L 4.140625 -7.179688 C 3.871094 -7.078125 3.886719 -6.863281 4.015625 -6.785156 L 4.449219 -6.800781 C 6.824219 -3.882812 9.925781 -1.957031 12.414062 -2.121094 C 13.109375 -2.253906 13.261719 -2.601562 13.261719 -2.890625 C 12.289062 -3.3125 10.402344 -4.199219 8.433594 -7.160156 Z M 8.433594 -7.160156 "/></g></g></g><g fill="#000000" fill-opacity="1"><g transform="translate(69.365195, 20.929589)"><g><path d="M 1.839844 -2.417969 C 1.902344 -1.003906 1.519531 -0.863281 0.992188 -0.714844 C 0.417969 -0.53125 0.65625 0.0234375 0.707031 0.0234375 C 0.972656 -0.0078125 1.484375 -0.0664062 1.800781 -0.078125 L 5.15625 -0.230469 C 5.453125 -0.242188 5.984375 -0.230469 6.25 -0.226562 C 6.289062 -0.226562 6.472656 -0.800781 5.882812 -0.933594 C 5.347656 -1.035156 4.957031 -1.140625 4.890625 -2.550781 L 4.550781 -10.25 C 4.488281 -11.660156 4.871094 -11.800781 5.394531 -11.949219 C 5.96875 -12.132812 5.734375 -12.691406 5.699219 -12.6875 C 5.433594 -12.660156 4.90625 -12.601562 4.605469 -12.585938 L 1.25 -12.4375 C 0.933594 -12.421875 0.421875 -12.4375 0.15625 -12.441406 C 0.101562 -12.441406 -0.0859375 -11.867188 0.503906 -11.730469 C 1.039062 -11.632812 1.433594 -11.527344 1.496094 -10.113281 Z M 1.839844 -2.417969 "/></g></g></g><g fill="#000000" fill-opacity="1"><g transform="translate(75.493289, 20.28462)"><g><path d="M 12.792969 1.195312 C 12.476562 1.027344 12.179688 0.855469 11.84375 -0.496094 L 9.515625 -9.839844 C 9.226562 -11.042969 9.03125 -11.175781 7.652344 -11.378906 L 5.78125 -11.65625 C 5.675781 -11.667969 5.433594 -11.242188 5.890625 -11.050781 C 6.105469 -10.945312 6.1875 -10.898438 6.285156 -10.582031 L 6.304688 -10.488281 C 6.386719 -10.191406 6.402344 -9.671875 6.191406 -9.328125 L 1.875 -1.957031 C 1.164062 -0.757812 0.832031 -0.683594 0.445312 -0.613281 C 0.0234375 -0.515625 0.0976562 0.0664062 0.132812 0.0742188 C 0.328125 0.0820312 0.683594 0.101562 0.890625 0.128906 L 1.992188 0.292969 C 2.394531 0.351562 3.089844 0.488281 3.4375 0.558594 C 3.488281 0.566406 3.851562 0.046875 3.085938 -0.226562 C 2.421875 -0.449219 1.953125 -0.640625 2.664062 -1.859375 L 3.023438 -2.46875 L 3.019531 -2.433594 C 3.128906 -2.578125 3.222656 -2.601562 3.414062 -2.570312 C 5.074219 -2.328125 6.457031 -2.144531 8.097656 -1.882812 C 8.257812 -1.863281 8.378906 -1.84375 8.464844 -1.707031 L 8.644531 -0.964844 C 8.996094 0.390625 8.558594 0.453125 7.914062 0.480469 C 7.191406 0.535156 7.351562 1.132812 7.40625 1.140625 C 7.722656 1.167969 8.339844 1.222656 8.726562 1.277344 L 12.1875 1.785156 C 12.378906 1.816406 12.722656 1.902344 12.894531 1.945312 C 12.914062 1.945312 13.152344 1.410156 12.792969 1.195312 Z M 7.96875 -2.691406 C 6.476562 -2.871094 5.304688 -3.042969 3.820312 -3.28125 C 3.664062 -3.304688 3.617188 -3.46875 3.710938 -3.617188 L 3.691406 -3.621094 L 6.734375 -8.765625 L 8.175781 -2.890625 C 8.175781 -2.785156 8.089844 -2.671875 7.96875 -2.691406 Z M 7.96875 -2.691406 "/></g></g></g><g fill="#000000" fill-opacity="1"><g transform="translate(87.722107, 22.380069)"><g/></g></g><g fill="#000000" fill-opacity="1"><g transform="translate(91.458678, 23.143677)"><g><path d="M 11.695312 5.320312 C 11.453125 5.054688 11.226562 4.796875 11.351562 3.410156 L 12.210938 -6.179688 C 12.335938 -7.410156 12.195312 -7.605469 10.957031 -8.246094 L 9.277344 -9.121094 C 9.183594 -9.167969 8.816406 -8.839844 9.183594 -8.511719 C 9.351562 -8.34375 9.414062 -8.269531 9.402344 -7.941406 L 9.394531 -7.84375 C 9.371094 -7.535156 9.214844 -7.042969 8.902344 -6.785156 L 2.414062 -1.234375 C 1.347656 -0.335938 1.007812 -0.371094 0.625 -0.433594 C 0.1875 -0.480469 0.0703125 0.0976562 0.101562 0.113281 C 0.28125 0.1875 0.613281 0.316406 0.800781 0.414062 L 1.789062 0.929688 C 2.148438 1.117188 2.757812 1.472656 3.066406 1.652344 C 3.113281 1.675781 3.625 1.304688 2.992188 0.796875 C 2.4375 0.371094 2.054688 0.03125 3.128906 -0.882812 L 3.664062 -1.34375 L 3.648438 -1.3125 C 3.800781 -1.410156 3.894531 -1.402344 4.066406 -1.3125 C 5.558594 -0.539062 6.804688 0.0898438 8.269531 0.871094 C 8.410156 0.945312 8.519531 1 8.558594 1.160156 L 8.484375 1.917969 C 8.375 3.316406 7.941406 3.230469 7.320312 3.046875 C 6.617188 2.859375 6.578125 3.476562 6.625 3.5 C 6.914062 3.632812 7.480469 3.886719 7.824219 4.066406 L 10.929688 5.679688 C 11.101562 5.769531 11.398438 5.960938 11.546875 6.058594 C 11.5625 6.066406 11.964844 5.640625 11.695312 5.320312 Z M 8.410156 0.0664062 C 7.058594 -0.59375 6.007812 -1.140625 4.683594 -1.847656 C 4.542969 -1.921875 4.554688 -2.09375 4.691406 -2.203125 L 4.675781 -2.210938 L 9.230469 -6.078125 L 8.671875 -0.0546875 C 8.636719 0.046875 8.519531 0.125 8.410156 0.0664062 Z M 8.410156 0.0664062 "/></g></g></g><g fill="#000000" fill-opacity="1"><g transform="translate(102.262966, 28.737963)"><g><path d="M 5.164062 4.457031 C 6.824219 5.886719 7.292969 6.617188 7.597656 6.882812 C 7.800781 7.054688 7.988281 7.054688 8.207031 6.773438 C 8.957031 5.765625 10.289062 4.441406 11.503906 3.410156 C 11.5625 3.34375 10.847656 2.332031 9.925781 3.101562 C 8.664062 4.160156 8.054688 4.542969 7.523438 4.644531 C 6.792969 4.761719 5.945312 4.171875 4.605469 2.992188 C 4.390625 2.808594 4.339844 2.597656 4.558594 2.34375 L 10.328125 -4.34375 C 11.253906 -5.414062 11.65625 -5.234375 12.164062 -4.957031 C 12.734375 -4.671875 12.929688 -5.25 12.890625 -5.285156 C 12.664062 -5.457031 12.226562 -5.789062 11.988281 -5.996094 L 9.445312 -8.1875 C 9.203125 -8.398438 8.839844 -8.757812 8.648438 -8.945312 C 8.609375 -8.980469 8.078125 -8.691406 8.417969 -8.1875 C 8.738281 -7.75 8.953125 -7.402344 8.027344 -6.332031 L 2.996094 -0.496094 C 2.070312 0.574219 1.695312 0.414062 1.214844 0.160156 C 0.667969 -0.0976562 0.460938 0.46875 0.5 0.5 C 0.710938 0.660156 1.125 0.96875 1.363281 1.175781 Z M 5.164062 4.457031 "/></g></g></g><g fill="#000000" fill-opacity="1"><g transform="translate(110.341297, 35.402798)"><g><path d="M 3.8125 5.835938 C 5.597656 8.316406 8.472656 8.621094 11.140625 6.699219 L 15.125 3.828125 C 16.273438 3 16.558594 3.1875 16.90625 3.460938 C 17.304688 3.738281 17.660156 3.265625 17.640625 3.238281 C 17.5 3.074219 17.226562 2.75 17.082031 2.550781 L 16.472656 1.703125 C 16.246094 1.390625 15.910156 0.867188 15.738281 0.597656 C 15.710938 0.554688 15.105469 0.683594 15.390625 1.351562 C 15.652344 1.925781 15.828125 2.386719 14.691406 3.226562 L 10.734375 6.074219 C 8.785156 7.480469 6.789062 7.371094 5.644531 5.78125 C 4.425781 4.085938 4.871094 2.109375 6.808594 0.714844 L 10.808594 -2.167969 C 11.957031 -2.992188 12.335938 -2.675781 12.808594 -2.234375 C 13.351562 -1.753906 13.664062 -2.285156 13.632812 -2.328125 C 13.421875 -2.589844 13.03125 -3.070312 12.816406 -3.371094 L 10.863281 -6.082031 C 10.710938 -6.296875 10.5 -6.648438 10.390625 -6.828125 C 10.371094 -6.859375 9.808594 -6.671875 9.945312 -6.207031 C 10.09375 -5.789062 10.179688 -5.457031 9.03125 -4.632812 L 4.859375 -1.628906 C 2.308594 0.210938 1.878906 3.152344 3.8125 5.835938 Z M 3.8125 5.835938 "/></g></g></g><g fill="#000000" fill-opacity="1"><g transform="translate(117.668366, 45.345966)"><g><path d="M 8.222656 7.402344 C 8.453125 7.21875 8.539062 7.089844 8.429688 6.808594 C 8.242188 6.277344 8.066406 5.777344 7.914062 5.285156 L 8.003906 5.324219 C 9.140625 7.859375 10.804688 8.921875 12.78125 8.152344 C 14.988281 7.292969 15.414062 5.175781 14.066406 1.699219 C 13.449219 0.117188 12.738281 -1.425781 12.183594 -2.800781 C 12.066406 -3.097656 11.914062 -3.589844 11.8125 -3.851562 C 11.800781 -3.882812 11.210938 -3.882812 11.273438 -3.28125 C 11.351562 -2.742188 11.378906 -2.335938 10.058594 -1.824219 L 2.878906 0.96875 C 1.5625 1.480469 1.304688 1.160156 0.996094 0.710938 C 0.636719 0.226562 0.1875 0.628906 0.207031 0.679688 C 0.320312 0.917969 0.539062 1.382812 0.652344 1.679688 L 1.871094 4.808594 C 1.976562 5.089844 2.136719 5.597656 2.214844 5.851562 C 2.230469 5.882812 2.832031 5.875 2.769531 5.273438 C 2.695312 4.734375 2.667969 4.328125 3.984375 3.816406 L 12.140625 0.648438 C 12.632812 0.457031 12.816406 0.535156 12.984375 0.964844 L 13.199219 1.523438 C 13.726562 2.929688 13.289062 4.238281 11.425781 4.960938 C 9.78125 5.601562 8.707031 5.28125 7.894531 3.679688 L 7.667969 3.144531 C 7.53125 2.894531 7.320312 2.9375 7.261719 3.074219 L 7.332031 3.5 C 4.757812 6.246094 3.265625 9.574219 3.761719 12.019531 C 3.984375 12.691406 4.347656 12.796875 4.636719 12.757812 C 4.921875 11.738281 5.550781 9.75 8.222656 7.402344 Z M 8.222656 7.402344 "/></g></g></g><g fill="#000000" fill-opacity="1"><g transform="translate(122.255712, 56.819094)"><g><path d="M 2.195312 12.65625 C 2.28125 12.308594 2.363281 11.980469 3.582031 11.296875 L 11.988281 6.605469 C 13.074219 6.011719 13.15625 5.789062 12.988281 4.402344 L 12.761719 2.523438 C 12.75 2.417969 12.273438 2.296875 12.207031 2.789062 C 12.164062 3.023438 12.140625 3.117188 11.859375 3.292969 L 11.773438 3.335938 C 11.507812 3.492188 11.011719 3.644531 10.621094 3.527344 L 2.378906 1.296875 C 1.035156 0.925781 0.875 0.625 0.707031 0.269531 C 0.503906 -0.113281 -0.0390625 0.113281 -0.0351562 0.148438 C 0.00390625 0.335938 0.0820312 0.683594 0.109375 0.894531 L 0.242188 2 C 0.289062 2.402344 0.339844 3.109375 0.363281 3.460938 C 0.367188 3.515625 0.964844 3.730469 1.027344 2.921875 C 1.066406 2.222656 1.132812 1.714844 2.492188 2.085938 L 3.175781 2.269531 L 3.140625 2.273438 C 3.308594 2.34375 3.351562 2.425781 3.375 2.621094 C 3.578125 4.285156 3.761719 5.671875 3.941406 7.320312 C 3.960938 7.480469 3.976562 7.601562 3.863281 7.722656 L 3.195312 8.089844 C 1.980469 8.785156 1.808594 8.378906 1.609375 7.761719 C 1.367188 7.078125 0.835938 7.394531 0.839844 7.445312 C 0.898438 7.757812 1.003906 8.367188 1.050781 8.753906 L 1.46875 12.230469 C 1.492188 12.421875 1.5 12.777344 1.503906 12.953125 C 1.503906 12.972656 2.085938 13.0625 2.195312 12.65625 Z M 4.683594 6.984375 C 4.46875 5.496094 4.328125 4.320312 4.167969 2.828125 C 4.148438 2.667969 4.296875 2.582031 4.464844 2.632812 L 4.460938 2.613281 L 10.222656 4.199219 L 4.933594 7.132812 C 4.828125 7.160156 4.699219 7.105469 4.683594 6.984375 Z M 4.683594 6.984375 "/></g></g></g></svg>